<svg xmlns="http://www.w3.org/2000/svg" viewBox="0 0 500 500"><g id="Background_Complete" data-name="Background Complete"><polygon points="38.649 140.838 48.49 150.518 103.731 150.518 103.731 131.149 48.49 131.149 38.649 140.838" style="fill:#ebebeb"/><polygon points="38.735 168.64 49.049 177.819 104.221 175.075 103.25 155.73 48.078 158.474 38.735 168.64" style="fill:#ebebeb"/><polygon points="171.53 155.674 160.944 164.54 105.879 160.141 107.436 140.833 162.5 145.232 171.53 155.674" style="fill:#ebebeb"/><polygon points="97.514 372.115 112.435 372.115 108.96 122.8 100.989 122.8 97.514 372.115" style="fill:#dbdbdb"/><path d="M439.19984,284.73531a35.64288,35.64288,0,0,1-1.74535,13.61387,37.70859,37.70859,0,0,1-2.55993,5.8805c-1.27988,2.41662-2.60461,4.7706-2.5419,7.52742.25056.19689-.6534.09836-.66237-.17006-6.99041-4.7259-16.308-6.21181-21.40979-13.4527a23.3848,23.3848,0,0,1-3.76819-11.75211,34.74584,34.74584,0,0,1,1.32474-13.73915c1.25305-3.63394,3.69658-7.04416,7.32155-8.59246,3.74128-1.59333,8.44035-1.0741,12.13693.39378C435.27048,267.61287,438.65378,276.7425,439.19984,284.73531Z" style="fill:#ebebeb"/><path d="M438.77931,339.14852c-.74174-3.40255-1.48175-6.8055-2.25032-10.2021-1.50532-6.65274-3.09146-13.288-4.90656-19.86376q-1.631-5.90836-3.4983-11.7239a69.23581,69.23581,0,0,1,1.4178-7.00019c.83023-2.78724,1.92913-5.457,2.96994-8.16711.06394-.16672-.20554-.27789-.28759-.12121-1.93654,3.69487-4.45552,8.41972-4.85812,12.9422q-2.18616-6.58564-4.77663-13.02131a54.03606,54.03606,0,0,1,1.12982-10.45127.126.126,0,0,0-.24274-.067,37.19678,37.19678,0,0,0-1.42848,9.19227c-1.33266-3.22408-2.75153-6.41718-4.28083-9.571-.13784-.28409-.53513-.03508-.41662.24354,2.33979,5.50246,4.472,11.10076,6.44068,16.75819a35.28127,35.28127,0,0,0-10.951-7.52236c-.17707-.079-.33457.17389-.15522.26565a41.85664,41.85664,0,0,1,11.76566,9.165q2.11471,6.2103,3.98034,12.49858c-4.22927-4.83732-10.262-8.271-16.19573-10.32021-.20235-.06981-.28115.24184-.08734.317,6.84505,2.65037,11.98318,7.04342,16.94446,12.22762q.73811,2.54071,1.44113,5.08845,2.66245,9.65942,4.99228,19.40742,1.12436,4.66938,2.19861,9.35091c.76988,3.35777,1.30206,6.88136,2.389,10.15.10383.31239.6525.28507.61123-.08262A95.06,95.06,0,0,0,438.77931,339.14852Z" style="fill:#dbdbdb"/><path d="M431.31877,277.68977a18.231,18.231,0,0,0-3.13967,6.3605c-.01615.05913.075.1022.1022.04306a56.83916,56.83916,0,0,1,3.35141-6.22013C431.75954,277.66824,431.45669,277.51009,431.31877,277.68977Z" style="fill:#dbdbdb"/><path d="M417.10077,291.91747a19.31987,19.31987,0,0,0-6.39125-2.71513c-.0588-.01248-.10268.07193-.04314.10219,1.02116.519,2.10578.91032,3.14187,1.40288,1.04066.49492,2.04731,1.0754,3.10191,1.53607A.189.189,0,0,0,417.10077,291.91747Z" style="fill:#dbdbdb"/><path d="M414.83945,273.3088a12.927,12.927,0,0,0-2.01044-1.466.11237.11237,0,0,0-.13556.17568,12.91852,12.91852,0,0,0,1.97643,1.51C414.79777,273.61971,414.96481,273.40651,414.83945,273.3088Z" style="fill:#dbdbdb"/><path d="M463.26718,296.4743c-5.17449,1.89119-10.38366,3.66559-15.558,5.53883-.44916.16566-10.41816-16.35828-7.74209-25.35439a28.76767,28.76767,0,0,1,16.864-18.111c3.68492-1.51192,8.2455-2.87206,12.27616-2.24142,3.5837.56368,6.25977,3.30223,7.615,6.556,1.84487,4.42217,1.65695,9.84461,1.09147,14.51138a25.42791,25.42791,0,0,1-4.45283,12.17413C470.76621,293.04883,467.30078,295.00152,463.26718,296.4743Z" style="fill:#ebebeb"/><path d="M469.90459,279.77231a70.43859,70.43859,0,0,1-10.08367,4.709,43.463,43.463,0,0,0-6.74483,2.92516c1.91852-5.10109,4.06052-10.11132,6.35546-15.08729a23.7157,23.7157,0,0,0,9.24935-5.5244.147.147,0,0,0-.20562-.20978,48.05961,48.05961,0,0,1-8.73421,5.07686c.62167-1.33917,1.24733-2.67737,1.88964-4.013.17887-.3716-.3379-.69785-.55822-.33375a111.67052,111.67052,0,0,0-6.711,13.043,57.676,57.676,0,0,1-1.25566-11.49209.077.077,0,0,0-.15382-.00163,38.45337,38.45337,0,0,0,.914,12.6564c-1.62,3.80457-3.07043,7.689-4.34607,11.60987-.744-2.26239-1.66551-4.4773-2.33049-6.76342a31.68868,31.68868,0,0,1-1.38575-10.10055c.004-.10041-.14355-.09821-.15381-.00147a35.84688,35.84688,0,0,0,3.36534,18.49057c-.73879,2.35863-1.436,4.72354-2.06141,7.08788a138.45186,138.45186,0,0,0-4.73178,37.00766.22388.22388,0,0,0,.44746.00449,181.72079,181.72079,0,0,1,5.61738-36.63044c1.24424-4.69042,2.72753-9.26176,4.38668-13.76,3.05624-1.11268,6.08074-2.55324,9.07336-3.80188a29.17184,29.17184,0,0,0,8.28733-4.71979C470.12686,279.86154,470.01,279.71065,469.90459,279.77231Z" style="fill:#dbdbdb"/><path d="M474.51263,274.5076c-3.15289,1.346-6.10919,3.14074-9.258,4.50251-.1473.06361-.0447.29737.10521.25667a21.69967,21.69967,0,0,0,9.28664-4.5821C474.7468,274.5921,474.62192,274.46087,474.51263,274.5076Z" style="fill:#dbdbdb"/><path d="M447.75739,269.18213c.02831-.17324-.22756-.25594-.26891-.07707-.7,3.02638-1.115,6.21768-.06672,9.20222.04111.11688.22854.10913.227-.02847C447.61394,275.2088,447.25848,272.24139,447.75739,269.18213Z" style="fill:#dbdbdb"/><path d="M460.65359,261.49241a7.88344,7.88344,0,0,0-1.086,5.13991c.01167.113.19674.16786.21941.03189.28759-1.72423.84825-3.31454,1.26756-4.998A.22138.22138,0,0,0,460.65359,261.49241Z" style="fill:#dbdbdb"/><path d="M478.39632,306.10717c-.65854,5.10982-3.08315,12.445-8.80941,13.52431-3.71168.70054-7.535.93014-11.27148,1.54414-4.00219.65251-8.00064,1.37711-11.94043,2.32764-.32292.07593-1.66071-12.0371,6.88893-19.5818,2.39517-2.1137,5.58892-3.21887,8.51907-4.4251a42.43555,42.43555,0,0,1,10.46219-3.01782c2.21842-.30611,4.13457-.16712,5.32237,1.9482C478.80943,300.64125,478.71622,303.67677,478.39632,306.10717Z" style="fill:#ebebeb"/><path d="M473.1861,300.79206c-2.22365,1.01643-4.45233,2.12609-6.6586,3.28746a24.91708,24.91708,0,0,1,1.59559-2.23147c.85519-1.015,1.84136-1.87985,2.78814-2.80437.07912-.07724-.00571-.24061-.11345-.17446a13.36091,13.36091,0,0,0-4.85182,5.51135c-2.747,1.46364-5.44848,3.0197-8.02407,4.65772a32.811,32.811,0,0,0-4.97752,3.87724A22.50832,22.50832,0,0,1,454.31372,309.1c.97721-1.87765,2.53587-3.10525,3.9925-4.57493a.15043.15043,0,0,0-.1951-.22878,13.8579,13.8579,0,0,0-6.02911,9.45082,32.4411,32.4411,0,0,0-4.55723,5.91419c-5.0564,8.34427-8.33831,18.83012-6.60519,28.62033.04128.23351.42771.23245.42926-.01827a55.10746,55.10746,0,0,1,7.45108-28.16309c.359-.61115.73488-1.19946,1.12287-1.77268a44.40438,44.40438,0,0,1,5.17344-1.32743c2.04779-.33466,4.12209-.428,6.18465-.62649,3.39716-.32723,7.1072-.95061,9.82617-3.17547.11974-.098-.01141-.31369-.151-.23262-6.29558,3.6536-13.914,1.81142-20.4024,4.47934a32.03784,32.03784,0,0,1,8.80535-8.201c.19043-.12219.38357-.23841.57492-.3588,4.41441-.25374,9.17865.05563,13.13576-2.10195a.105.105,0,0,0-.09063-.18931c-3.88508,1.74365-8.01353,1.16407-12.06295,1.67864,4.06541-2.48293,8.2764-4.63365,12.35869-7.10736C473.61813,300.95674,473.56642,300.61817,473.1861,300.79206Z" style="fill:#dbdbdb"/><path d="M475.854,304.70552a58.85066,58.85066,0,0,1-6.2048,1.60213c-.04755.01126-.04991.0876.00377.09a13.24,13.24,0,0,0,6.27346-1.54064A.084.084,0,0,0,475.854,304.70552Z" style="fill:#dbdbdb"/><path d="M460.90513,303.09881a10.46855,10.46855,0,0,0-2.726,2.72183c-.09216.11655.09.28686.19526.17707.45863-.47893.93756-.93788,1.42245-1.39007a15.52409,15.52409,0,0,0,1.34473-1.23061C461.263,303.23347,461.06532,303.00918,460.90513,303.09881Z" style="fill:#dbdbdb"/><path d="M427.51,320.82539c.07161.16109-.16108.3132-.25064.14315-.009,0-.009,0-.009-.00889a.22976.22976,0,0,1-.15212.09844A97.97161,97.97161,0,0,1,415.194,323.1346c-3.22221.28644-6.93666.46539-9.7562-1.40525-3.82178-2.533-6.33692-9.30866-4.26931-13.61378,2.44345-5.1108,9.80978-2.33612,13.50638-.51915A27.11691,27.11691,0,0,1,427.51,320.82539Z" style="fill:#ebebeb"/><path d="M430.36783,323.188a38.01489,38.01489,0,0,0-7.108-5.4107,24.3267,24.3267,0,0,0-7.20842-7.34635c-.13964-.09657-.259.12463-.13058.22348a32.56224,32.56224,0,0,1,6.07388,6.38946,66.98159,66.98159,0,0,0-8.91781-4.05636,11.87375,11.87375,0,0,0-4.79034-4.8c-.03972-.02023-.09037.03491-.05081.0659a19.6698,19.6698,0,0,1,4.32682,4.54027c-1.81192-.67616-3.64193-1.306-5.4709-1.91248-.16492-.05465-.22666.19534-.07071.25627,3.25581,1.27221,6.58455,2.61375,9.81076,4.16165a37.76895,37.76895,0,0,1-11.88091-.03475.08754.08754,0,0,0-.04649.16867,23.42419,23.42419,0,0,0,12.60624.18809A59.09071,59.09071,0,0,1,423.49,318.97a14.96932,14.96932,0,0,0-4.83291.39525,36.74894,36.74894,0,0,1-8.49255.96162c-.108-.0035-.13637.17341-.0261.19241,4.92671.84768,9.58517-1.39146,14.46815-.8091a37.77153,37.77153,0,0,1,5.08568,4.15358,38.21419,38.21419,0,0,1,7.41706,10.46489c2.05538,4.18351,3.17051,8.61848,4.83169,12.94056a.15748.15748,0,0,0,.30341-.08368C440.82074,338.66339,436.57736,329.26354,430.36783,323.188Z" style="fill:#dbdbdb"/><path d="M415.50916,311.5a5.61583,5.61583,0,0,0-1.262-1.53077,4.98029,4.98029,0,0,0-1.45451-1.08869c-.04942-.01852-.07683.04853-.04754.0818.40365.45863.96627.7945,1.40189,1.23323.43938.44248.80225.95918,1.24685,1.39342A.07376.07376,0,0,0,415.50916,311.5Z" style="fill:#dbdbdb"/><path d="M407.38307,314.14558c-.73-.18311-1.50368-.17014-2.24648-.32177a21.25474,21.25474,0,0,1-2.1778-.65234.08784.08784,0,0,0-.06745.15979,7.23252,7.23252,0,0,0,4.49173,1.04351A.11974.11974,0,0,0,407.38307,314.14558Z" style="fill:#dbdbdb"/><polygon points="453.798 332.213 452.995 341.338 450.268 372.146 426.14 372.146 422.734 341.338 421.728 332.213 453.798 332.213" style="fill:#c7c7c7"/><polygon points="453.798 332.213 452.995 341.338 422.734 341.338 421.728 332.213 453.798 332.213" style="fill:#a6a6a6"/><rect x="419.33862" y="329.7251" width="36.84828" height="7.40246" style="fill:#c7c7c7"/><path d="M452.94889,99.90252h-113.181S350.99,69.251,368.26059,69.251s22.6806,21.1567,22.6806,21.1567S402.5937,78.913,412.16529,78.913c9.5717,0,17.8949,15.1898,17.8949,15.1898S443.58529,85.93482,452.94889,99.90252Z" style="fill:#ebebeb"/><path d="M254.35682,57.31035h-52.8924s11.8188-17.1234,21.1302-17.1234c9.3115,0,12.063,11.4156,12.063,11.4156s6.5712-5.3273,12.6596-4.376C253.40552,48.17785,254.35682,57.31035,254.35682,57.31035Z" style="fill:#ebebeb"/><path d="M199.28052,77.272H96.25543s14.1086-31.4981,29.2014-33.4668c15.09279-1.9686,22.31119,23.4049,22.31119,23.4049s9.7337-8.9682,17.3895-8.9682,13.5617,11.8118,13.5617,11.8118S194.03082,61.96035,199.28052,77.272Z" style="fill:#ebebeb"/></g><g id="Floor"><polygon points="25.156 372.115 81.367 371.872 137.578 371.784 250 371.616 362.422 371.783 418.633 371.87 474.844 372.115 418.633 372.36 362.422 372.448 250 372.614 137.578 372.447 81.367 372.358 25.156 372.115" style="fill:#263238"/></g><g id="Shadows"><ellipse cx="109.68827" cy="440.19953" rx="86.86317" ry="12.89078" style="fill:#ebebeb"/><ellipse cx="399.08329" cy="440.19953" rx="86.8631" ry="12.89077" style="fill:#ebebeb"/><ellipse cx="257.38008" cy="419.23973" rx="114.67341" ry="8.44102" style="fill:#ebebeb"/></g><g id="Map"><polygon points="323.365 127.817 388.557 119.297 388.557 382.884 323.365 391.404 323.365 127.817" style="fill:#37474f"/><polygon points="192.981 127.817 258.173 119.297 258.173 382.884 192.981 391.404 192.981 127.817" style="fill:#263238"/><polygon points="323.365 127.817 258.173 119.297 258.173 382.884 323.365 391.404 323.365 127.817" style="fill:#263238"/><polygon points="192.982 127.817 127.789 119.297 127.789 382.884 192.982 391.404 192.982 127.817" style="fill:#37474f"/><polygon points="323.365 133.431 382.336 125.789 382.336 376.799 323.365 384.441 323.365 133.431" style="fill:#dbdbdb"/><polygon points="192.982 133.902 258.173 125.789 258.173 376.799 192.982 384.912 192.982 133.902" style="fill:#dbdbdb"/><polygon points="323.365 133.667 258.173 126.024 258.173 377.035 323.365 384.677 323.365 133.667" style="fill:#ebebeb"/><polygon points="192.982 133.902 134.011 125.789 134.011 376.799 192.982 384.912 192.982 133.902" style="fill:#ebebeb"/><polygon points="186.095 132.958 180.827 150.967 179.585 155.217 166.583 199.61 165.819 201.373 162.015 199.933 134.013 189.367 134.013 184.643 163.527 195.79 182.068 132.403 186.095 132.958" style="fill:#fff"/><polygon points="247.033 127.178 244.638 128.628 240.484 131.133 214.471 146.834 210.938 148.972 193.209 159.673 192.978 159.601 179.585 155.217 177.739 154.618 178.853 150.323 180.827 150.967 192.755 154.868 192.978 154.734 236.426 128.502 236.433 128.493 236.441 128.493 240.81 127.957 243.102 127.67 243.118 127.67 247.033 127.178" style="fill:#fff"/><polygon points="310.891 132.206 307.502 146.351 306.356 151.129 287.585 229.179 286.55 233.509 286.535 233.563 272.608 228.15 267.786 226.155 258.11 222.165 256.908 221.664 254.951 218.568 210.938 148.972 209.919 147.362 213.166 144.767 214.471 146.834 233.911 177.575 236.529 181.717 259.438 217.942 283.821 227.676 296.409 175.41 297.531 170.74 306.889 131.732 310.891 132.206" style="fill:#fff"/><polygon points="299.417 172.368 296.998 175.92 296.409 175.41 258.173 142.495 257.067 141.547 254.68 140.044 251.203 137.861 240.484 131.133 239.529 130.533 240.81 127.957 243.102 127.67 243.118 127.67 244.638 128.628 258.173 137.145 259.367 137.896 297.531 170.74 299.417 172.368" style="fill:#fff"/><polygon points="382.334 189.724 382.334 194.565 371.973 189.706 368.257 187.962 322.31 166.409 306.356 151.129 303.746 148.632 306.324 145.224 307.502 146.351 324.419 162.553 382.334 189.724" style="fill:#fff"/><polygon points="344.06 313.373 340.204 312.272 368.679 186.092 372.535 187.192 344.06 313.373" style="fill:#fff"/><polygon points="382.334 296.798 382.334 301.477 333.777 318.494 329.918 319.845 329.91 319.845 324.332 321.804 264.484 377.774 258.953 377.121 279.595 357.823 283.749 353.931 301.947 336.915 305.226 333.855 322.398 317.796 340.382 311.497 344.838 309.932 382.334 296.798" style="fill:#fff"/><polygon points="323.129 247.757 284.515 232.794 285.789 228.557 323.601 243.215 357.968 239.598 358.339 244.052 323.129 247.757" style="fill:#fff"/><polygon points="236.015 182.92 232.441 180.954 252.027 135.958 255.601 137.925 236.015 182.92" style="fill:#fff"/><polygon points="284.616 354.066 284.091 358.494 279.595 357.823 257.378 354.486 192.779 331.949 134.013 338.472 134.013 333.971 173.776 329.561 179.004 328.988 193.185 327.413 193.575 327.548 230.473 340.422 234.643 341.871 258.237 350.102 283.749 353.931 284.616 354.066" style="fill:#fff"/><polygon points="148.153 242.027 134.013 274.575 134.013 264.366 162.015 199.933 163.01 197.642 166.583 199.61 165.819 201.373 150.063 237.643 148.153 242.027" style="fill:#fff"/><polygon points="179.665 329.686 176.928 332.934 173.776 329.561 134.013 287.1 134.013 280.927 164.944 313.967 168.119 317.348 179.004 328.988 179.665 329.686" style="fill:#fff"/><polygon points="193.233 244.354 146.847 241.953 147.03 237.484 192.731 239.85 257.594 217.661 258.752 221.94 193.233 244.354" style="fill:#fff"/><polygon points="167.705 318.712 163.94 317.267 187.143 240.825 190.908 242.271 167.705 318.712" style="fill:#fff"/><polygon points="382.334 263.409 382.334 267.918 355.087 264.518 353.36 264.304 353.798 259.857 356.074 260.144 382.334 263.409" style="fill:#fff"/><polygon points="302.403 338.375 267.474 225.155 271.233 223.689 306.162 336.909 302.403 338.375" style="fill:#fff"/><polygon points="232.594 344.469 229.624 341.492 256.916 307.081 288.489 287.59 290.403 291.511 259.43 310.631 232.594 344.469" style="fill:#fff"/><polygon points="310.891 132.206 307.502 146.351 306.356 151.129 287.585 229.179 286.55 233.509 286.535 233.563 272.608 228.15 267.786 226.155 258.11 222.165 256.908 221.664 254.951 218.568 210.938 148.972 209.919 147.362 213.166 144.767 214.471 146.834 233.911 177.575 236.529 181.717 259.438 217.942 283.821 227.676 296.409 175.41 297.531 170.74 306.889 131.732 310.891 132.206" style="fill:#fff"/><polygon points="323.129 247.757 284.515 232.794 285.789 228.557 323.601 243.215 357.968 239.598 358.339 244.052 323.129 247.757" style="fill:#fff"/><polygon points="284.615 354.066 284.093 358.497 279.59 357.821 257.376 354.49 231.812 345.566 231.794 345.566 205.743 336.471 192.776 331.951 134.012 338.47 134.012 333.968 173.777 329.565 179.008 328.988 193.182 327.413 193.578 327.548 205.743 331.798 230.47 340.424 234.639 341.874 234.648 341.874 234.711 341.901 258.24 350.104 283.751 353.931 284.615 354.066" style="fill:#fff"/><polygon points="306.163 336.912 302.399 338.371 288.334 292.79 288.334 292.781 287.01 288.503 267.776 226.164 267.776 226.155 267.47 225.155 267.938 224.975 271.234 223.688 272.612 228.154 291.873 290.601 306.163 336.912" style="fill:#fff"/><polygon points="290.405 291.502 290.405 291.511 288.334 292.79 259.429 310.628 234.648 341.874 232.595 344.467 229.623 341.496 230.47 340.424 256.917 307.08 287.01 288.503 288.487 287.594 290.405 291.502" style="fill:#fff"/><polygon points="361.724 379.474 357.49 380.02 329.918 319.845 329.91 319.845 329.146 318.172 332.687 316.123 333.777 318.494 361.724 379.474" style="fill:#fff"/><polygon points="209.675 226.899 243.558 215.31 221.416 180.297 202.8 186.553 209.675 226.899" style="fill:#ebebeb"/><polygon points="332.822 232.478 352.173 230.442 361.009 191.934 340.157 182.153 332.822 232.478" style="fill:#ebebeb"/><polygon points="382.334 178.564 338.793 159.171 338.793 131.432 382.336 125.789 382.334 178.564" style="fill:#ebebeb"/><polygon points="198.099 163.393 208.938 156.851 218.642 172.245 201.346 178.161 198.099 163.393" style="fill:#ebebeb"/><polygon points="268.873 314.101 286.54 303.195 296.001 333.874 283.349 345.704 268.873 343.531 268.873 314.101" style="fill:#dbdbdb"/><polygon points="267.756 135.335 267.756 127.115 302.853 131.259 296.036 159.673 267.756 135.335" style="fill:#dbdbdb"/><polygon points="140.605 276.056 163.14 300.128 177.702 251.946 151.58 250.598 140.605 276.056" style="fill:#dbdbdb"/><polygon points="140.219 179.319 140.219 140.135 172.057 144.708 159.773 186.705 140.219 179.319" style="fill:#dbdbdb"/><polygon points="140.219 135.334 172.057 139.907 174.591 131.372 140.219 126.643 140.219 135.334" style="fill:#dbdbdb"/><polygon points="199.628 378.276 199.628 341.556 222.978 349.747 222.978 375.37 199.628 378.276" style="fill:#ebebeb"/><polygon points="138.981 344.415 157.134 342.401 157.134 374.588 138.979 372.09 138.981 344.415" style="fill:#dbdbdb"/><polygon points="367.4 371.323 347.15 327.137 382.334 314.806 382.336 369.385 367.4 371.323" style="fill:#ebebeb"/><polygon points="318.061 232.345 318.061 210.045 297.866 202.977 293.1 222.853 318.061 232.345" style="fill:#dbdbdb"/><polygon points="272.61 228.155 291.875 290.606 290.405 291.506 288.339 292.777 288.339 292.786 259.431 310.629 234.715 341.897 231.814 345.566 231.795 345.566 205.741 336.474 205.741 331.8 230.467 340.428 256.919 307.083 287.011 288.501 267.775 226.165 267.784 226.155 267.936 224.979 268.4 221.519 268.4 221.49 283.835 227.634 290.481 200.007 294.245 201.476 286.535 233.563 272.61 228.155" style="fill:#ffc727"/><path d="M307.06482,174.20484c-.75638-7.59889-5.993-15.1629-15.19779-15.1629-9.1931,0-14.42975,7.564-15.18612,15.1629-1.16369,11.73,6.74941,22.3544,15.18612,32.048C300.3155,196.55924,308.22859,185.93482,307.06482,174.20484ZM291.867,182.64156a8.3204,8.3204,0,1,1,8.33206-8.32039A8.31869,8.31869,0,0,1,291.867,182.64156Z" style="fill:#263238"/><path d="M220.93506,304.49683c-.75638-7.59889-5.993-15.1629-15.19779-15.1629-9.19318,0-14.42974,7.564-15.18612,15.1629-1.16368,11.73,6.74941,22.35441,15.18612,32.048C214.18565,326.85124,222.09875,316.22681,220.93506,304.49683Zm-15.19779,8.43672a8.32039,8.32039,0,1,1,8.332-8.32039A8.31863,8.31863,0,0,1,205.73727,312.93355Z" style="fill:#263238"/></g><g id="Character_2" data-name="Character 2"><path d="M366.37489,226.9468a15.049,15.049,0,0,0,.7288,1.4297,14.62726,14.62726,0,0,0,2.5142,3.2015,26.71619,26.71619,0,0,0,25.6713,7.0396,27.56455,27.56455,0,0,0,12.5179-7.0148,23.558,23.558,0,0,0,4.1551-5.4197,55.78683,55.78683,0,0,0,6.4854-33.4037c-.0223-.2159-.0447-.4319-.0729-.6484-.0035-.0716-.0181-.1503-.0274-.2225-.0077-.0364-.0094-.0722-.017-.1086-.0325-.2823-.0772-.5601-.1155-.8431a55.72565,55.72565,0,0,0-3.2841-12.3929c-.00969-.0189-.0135-.0372-.0232-.056-.574-1.4355-1.1958-2.8173-1.8771-4.1468a43.66069,43.66069,0,0,0-2.5886-4.4486c-3.7839-5.6896-13.6022-8.4532-19.8722-3.753-4.2304,3.1592-5.8801,7.6195-6.8705,12.3222-.2356,1.1104-.4309,2.2314-.621,3.359-.2239,1.3665-.436,2.7345-.6688,4.0763-.1412.8073-.2926,1.6016-.4668,2.3873-.0106.0403-.016.087-.0267.1272-1.0432,4.75-1.9999,8.8048-5.4009,12.2203-2.9703,2.9736-6.3035,5.7036-8.4985,9.348C365.33719,214.4472,363.84269,221.1951,366.37489,226.9468Z" style="fill:#263238"/><path d="M363.57939,216.8403c.7321-4.4307,3.2367-8.06,6.4481-11.0836a50.06024,50.06024,0,0,0,5.832-5.8223,27.56725,27.56725,0,0,0,3.7536-7.0583c2.2346-5.9366,3.0887-12.2861,5.3731-18.2097.0277-.072.1365-.0275.1109.0449-3.1872,9.0267-3.4278,19.6363-10.0742,27.1174-3.1518,3.5474-7.1405,6.1895-9.2935,10.555-2.081,4.2196-2.5296,9.2786-.0815,13.4472,2.4946,4.2478,7.00411,6.6419,11.5904,7.9829.15.0438.0856.3051-.0687.2694C369.14329,232.2253,362.12769,225.6269,363.57939,216.8403Z" style="fill:#263238"/><path d="M384.17519,238.8146a34.21412,34.21412,0,0,0,4.5024.6235,28.27,28.27,0,0,0,14.2716-2.3668,21.12607,21.12607,0,0,0,3.8993-2.4509,27.45273,27.45273,0,0,0,7.9001-10.4723,52.782,52.782,0,0,0,4.1212-16.3569,63.56662,63.56662,0,0,0-.538-16.7023c-.3377-2.0421-.7782-4.0666-1.317-6.0609a59.16293,59.16293,0,0,0-4.4041-11.4741c-.0638-.1141-.245-.0344-.187.079.1094.2319.2187.4639.3222.6952.3133.6704.6084,1.3446.8969,2.0241a63.50132,63.50132,0,0,1,4.2706,14.5637q.07485.4266.1323.851c.0076.0364.0094.0721.0171.1086.0093.0722.0239.1509.0274.2224.0574.3741.1081.7533.1531,1.1318,1.3494,10.8351.1416,22.8725-5.0355,32.5527-.1581.2899-.3162.5796-.4853.8622a23.659,23.659,0,0,1-11.8179,10.5805,23.278,23.278,0,0,1-5.8999,1.3594,66.66986,66.66986,0,0,1-10.7949-.068A.15007.15007,0,0,0,384.17519,238.8146Z" style="fill:#263238"/><path d="M370.92639,203.5343a68.02144,68.02144,0,0,0,5.4909-4.3743,17.46305,17.46305,0,0,0,3.9102-6.9207c1.8006-5.1434,3.3499-10.408,4.805-15.6587.0079-.0285.0504-.011.0427.0173-1.3458,4.9331-2.5876,9.8809-4.1599,14.7506a24.17777,24.17777,0,0,1-2.7098,6.2555,19.15313,19.15313,0,0,1-4.3644,4.2697c-3.6266,2.7867-7.0637,5.7228-9.336,9.7684-2.43209,4.3299-3.17809,9.5277-1.0704,14.139.0198.0433-.0465.0718-.0673.0296C359.37549,217.529,364.41709,208.7723,370.92639,203.5343Z" style="fill:#263238"/><path d="M410.16119,197.2789c5.9124,3.4881,27.845,25.4394,29.2094,38.6557,1.5245,14.7668-6.748,36.8573-8.5158,39.2315-2.2895,3.0749-21.0959-3.8016-20.6821-8.5604.51631-5.937,8.0488-25.7127,7.4171-29.2659-.9561-5.3782-8.7539-23.575-13.8186-34.9529C400.82639,195.7712,405.60679,194.5921,410.16119,197.2789Z" style="fill:#dd6a57"/><path d="M430.85479,275.1661c-.51179,1.8518-3.8126,13.7609-5.386,16.727-1.5733,2.9663-6.7195,11.1742-9.1136,10.2-2.3941-.9743-1.0795-3.4976-1.0795-3.4976s-2.7219,3.1218-5.0422,1.9216c-2.3204-1.2003-.14649-5.0589-.14649-5.0589s-3.02911,3.0023-5.25791,1.6395c-2.2287-1.3626.60691-4.8761.60691-4.8761s-2.64141,2.874-4.00541.9785c-1.6407-2.2799,3.8278-7.0284,5.3192-10.4332.3387-.7734,5.7478-16.1612,5.7478-16.1612Z" style="fill:#dd6a57"/><path d="M405.67429,292.6294c4.0131-3.5016,5.1631-5.7275,6.664-10.7511.0293-.0981.182-.0767.16071.0286-1.022,5.0531-2.06181,8.0534-6.66531,10.9256C405.60859,292.973,405.48329,292.796,405.67429,292.6294Z" style="fill:#263238"/><path d="M410.23869,295.8326c3.8506-4.0007,5.11931-6.4042,7.0782-11.5501.0278-.0729.1539-.0336.132.0424-1.4994,5.2088-2.6055,8.1783-6.97789,11.6704C410.27319,296.1533,410.06259,296.0155,410.23869,295.8326Z" style="fill:#263238"/><path d="M415.84239,298.4323c3.4485-4.1426,4.9532-6.7177,6.2137-11.9576a.09911.09911,0,0,1,.195.0349,17.87985,17.87985,0,0,1-6.2714,12.0141C415.73049,298.7501,415.62549,298.6929,415.84239,298.4323Z" style="fill:#263238"/><path d="M410.99069,262.5814a65.31087,65.31087,0,0,0-5.85069,7.645c-1.448,2.6299-3.23731,14.4168-.71381,14.9478,3.2587.6856,5.632-5.9152,6.372-9.3001,0,0,7.5362,1.593,10.2647-2.7758S410.99069,262.5814,410.99069,262.5814Z" style="fill:#dd6a57"/><path d="M405.38369,285.0692c3.4224-1.5185,4.1071-6.0242,5.0704-9.2543a.30815.30815,0,0,1,.4733-.1801c3.2034.4568,7.8552.1684,10.183-2.3309a.07811.07811,0,0,1,.1228.0964c-2.1326,3.0194-6.6797,3.6758-10.1563,2.9508-.9361,3.3277-1.8211,7.8165-5.6803,8.7517A.018.018,0,0,1,405.38369,285.0692Z" style="fill:#263238"/><path d="M440.14649,244.6537a134.90646,134.90646,0,0,1-3.9986,22.6902l-25.9764-9.1559s6.62951-16.8205,6.7909-19.5844c.228-4.0175-5.2903-16.8205-11.0553-29.1201-4.673-9.9631-4.787-15.7188,1.3011-13.7148a24.47055,24.47055,0,0,1,5.2903,2.7069c11.1788,7.1613,24.2763,24.8841,27.0591,35.5501A35.49767,35.49767,0,0,1,440.14649,244.6537Z" style="fill:#ffc727"/><path d="M409.44879,204.5241a.469.469,0,1,1-.4689-.469A.46886.46886,0,0,1,409.44879,204.5241Z" style="fill:#fff"/><path d="M417.55049,204.5241a.469.469,0,1,1-.469-.469A.46894.46894,0,0,1,417.55049,204.5241Z" style="fill:#fff"/><path d="M405.398,198.5119a.469.469,0,1,1-.469-.4689A.469.469,0,0,1,405.398,198.5119Z" style="fill:#fff"/><path d="M417.55049,216.6763a.469.469,0,1,1-.469-.469A.46894.46894,0,0,1,417.55049,216.6763Z" style="fill:#fff"/><path d="M425.65209,216.6763a.469.469,0,1,1-.469-.469A.46894.46894,0,0,1,425.65209,216.6763Z" style="fill:#fff"/><path d="M413.49959,210.6641a.469.469,0,1,1-.4689-.4689A.46894.46894,0,0,1,413.49959,210.6641Z" style="fill:#fff"/><path d="M421.60129,210.6641a.469.469,0,1,1-.469-.4689A.469.469,0,0,1,421.60129,210.6641Z" style="fill:#fff"/><circle cx="417.08149" cy="228.8285" r="0.469" style="fill:#fff"/><path d="M425.65209,228.8285a.469.469,0,1,1-.469-.469A.469.469,0,0,1,425.65209,228.8285Z" style="fill:#fff"/><path d="M433.75369,228.8285a.469.469,0,1,1-.4689-.469A.46894.46894,0,0,1,433.75369,228.8285Z" style="fill:#fff"/><path d="M413.49959,222.8163a.469.469,0,1,1-.4689-.4689A.46894.46894,0,0,1,413.49959,222.8163Z" style="fill:#fff"/><path d="M421.60129,222.8163a.469.469,0,1,1-.469-.4689A.469.469,0,0,1,421.60129,222.8163Z" style="fill:#fff"/><path d="M429.70289,222.8163a.46895.46895,0,1,1-.46889-.4689A.46893.46893,0,0,1,429.70289,222.8163Z" style="fill:#fff"/><circle cx="417.08149" cy="240.9807" r="0.469" style="fill:#fff"/><path d="M425.65209,240.9807a.469.469,0,1,1-.469-.469A.469.469,0,0,1,425.65209,240.9807Z" style="fill:#fff"/><path d="M433.75369,240.9807a.469.469,0,1,1-.4689-.469A.46894.46894,0,0,1,433.75369,240.9807Z" style="fill:#fff"/><path d="M421.60129,234.9686a.469.469,0,1,1-.469-.469A.46894.46894,0,0,1,421.60129,234.9686Z" style="fill:#fff"/><path d="M429.70289,234.9686a.46895.46895,0,1,1-.46889-.469A.46885.46885,0,0,1,429.70289,234.9686Z" style="fill:#fff"/><path d="M437.80459,234.9686a.469.469,0,1,1-.469-.469A.46894.46894,0,0,1,437.80459,234.9686Z" style="fill:#fff"/><path d="M417.55049,253.1329a.469.469,0,1,1-.469-.4689A.469.469,0,0,1,417.55049,253.1329Z" style="fill:#fff"/><path d="M425.65209,253.1329a.469.469,0,1,1-.469-.4689A.469.469,0,0,1,425.65209,253.1329Z" style="fill:#fff"/><path d="M433.75369,253.1329a.469.469,0,1,1-.4689-.4689A.46894.46894,0,0,1,433.75369,253.1329Z" style="fill:#fff"/><path d="M421.60129,247.1208a.469.469,0,1,1-.469-.469A.46894.46894,0,0,1,421.60129,247.1208Z" style="fill:#fff"/><path d="M429.70289,247.1208a.46895.46895,0,1,1-.46889-.469A.46885.46885,0,0,1,429.70289,247.1208Z" style="fill:#fff"/><path d="M437.80459,247.1208a.469.469,0,1,1-.469-.469A.46894.46894,0,0,1,437.80459,247.1208Z" style="fill:#fff"/><path d="M433.75369,265.2851a.469.469,0,1,1-.4689-.4689A.46894.46894,0,0,1,433.75369,265.2851Z" style="fill:#fff"/><path d="M421.60129,259.273a.469.469,0,1,1-.469-.469A.46894.46894,0,0,1,421.60129,259.273Z" style="fill:#fff"/><path d="M429.70289,259.273a.46895.46895,0,1,1-.46889-.469A.46885.46885,0,0,1,429.70289,259.273Z" style="fill:#fff"/><path d="M437.80459,259.273a.469.469,0,1,1-.469-.469A.46894.46894,0,0,1,437.80459,259.273Z" style="fill:#fff"/><path d="M440.14649,244.6537a134.90646,134.90646,0,0,1-3.9986,22.6902l-25.9764-9.1559s6.62951-16.8205,6.7909-19.5844c.228-4.0175-5.2903-16.8205-11.0553-29.1201-4.673-9.9631-4.787-15.7188,1.3011-13.7148Z" style="fill:#263238"/><path d="M404.48159,196.7793c-.1407.8285-3.7123,6.3695-7.4558,6.4242-1.2192.0157-1.6022-6.6352-1.6022-6.6352l-.1407-.4845-1.9616-6.7837,7.7606-5.6819,1.1254-.7581s.4143,1.8914.9066,4.2516c.0235.1094.0469.2188.0704.3361.0312.1328.0625.2579.0859.383.0783.3516.1563.7111.22681,1.0707.05459.2734.10929.5392.15619.8283.0547.2892.1016.5706.1563.8597A45.50529,45.50529,0,0,1,404.48159,196.7793Z" style="fill:#dd6a57"/><path d="M403.11389,187.1117a14.16514,14.16514,0,0,1-7.831,8.9721l-1.9616-6.7837,7.7606-5.6819,1.1254-.7581S402.62159,184.7515,403.11389,187.1117Z" style="fill:#263238"/><path d="M384.37159,177.4562c-2.87759,12.0547,3.9587,15.2531,6.6178,15.7571,2.38361.4519,10.4685,2.1699,14.5763-9.5231,4.1077-11.693-.5874-16.8417-5.9179-18.4096C394.31719,163.7126,387.24909,165.4011,384.37159,177.4562Z" style="fill:#dd6a57"/><path d="M385.37539,175.4422a8.12785,8.12785,0,0,0,.8528-.0727,1.38329,1.38329,0,0,0,.8557-.2402.44093.44093,0,0,0,.0652-.5343,1.093,1.093,0,0,0-1.0383-.3855,1.60667,1.60667,0,0,0-1.0701.4404A.47028.47028,0,0,0,385.37539,175.4422Z" style="fill:#263238"/><path d="M393.27339,176.6066a8.07794,8.07794,0,0,1-.8137-.2659,1.38354,1.38354,0,0,1-.7781-.4293.44055.44055,0,0,1,.0588-.535,1.09245,1.09245,0,0,1,1.0987-.138,1.60674,1.60674,0,0,1,.9412.6733A.47034.47034,0,0,1,393.27339,176.6066Z" style="fill:#263238"/><path d="M390.97909,179.5521c.0111-.0309.0595.0491.0534.0833-.1494.8308-.1806,1.8076.534,2.196.0221.012.01351.0536-.0138.0456C390.65,181.6116,390.70439,180.3154,390.97909,179.5521Z" style="fill:#263238"/><path d="M391.85289,178.7899c1.3578.0956,1.0666,2.8042-.1914,2.7155C390.42359,181.4182,390.71479,178.7097,391.85289,178.7899Z" style="fill:#263238"/><path d="M392.36929,178.9902c.2201.1787.4228.4742.7048.5329.3267.0682.6064-.1886.8513-.4382.0254-.0259.0462.0003.0429.0362-.048.5199-.3049,1.0308-.8695,1.0484-.5151.0161-.8302-.4827-.9035-1.0184C392.18149,179.0519,392.28069,178.9183,392.36929,178.9902Z" style="fill:#263238"/><path d="M386.619,178.7083c-.00341-.0328-.06961.033-.07211.0677-.057.8423-.2641,1.7974-1.0516,2.0005-.02429.0063-.0262.0487.0023.0476C386.43769,180.786,386.70009,179.5153,386.619,178.7083Z" style="fill:#263238"/><path d="M385.95649,177.7565c-1.3403-.2371-1.716,2.461-.4743,2.6807C386.70409,180.6534,387.08009,177.9553,385.95649,177.7565Z" style="fill:#263238"/><path d="M385.36919,177.8557c-.2331.1133-.4801.3437-.73719.325-.29781-.0217-.47551-.344-.62511-.65-.0155-.0316-.03989-.0121-.04589.0235-.086.5138.00979,1.0746.49129,1.2426.4394.1532.8329-.2431,1.0273-.7396C385.51579,177.9653,385.46309,177.8101,385.36919,177.8557Z" style="fill:#263238"/><path d="M390.64449,185.968c-.1696.226-.32749.5257-.6261.5979a2.22815,2.22815,0,0,1-.9288-.0714.02955.02955,0,0,0-.02959.0483,1.13689,1.13689,0,0,0,1.12869.2894.89847.89847,0,0,0,.5418-.8388C390.736,185.943,390.66919,185.935,390.64449,185.968Z" style="fill:#263238"/><path d="M387.25429,182.6923s-.32229,1.2308-.393,1.8211c-.00629.0553.1334.0986.3323.1343.0092.004.0141.0085.023.0033a2.82519,2.82519,0,0,0,2.8505-.7226c.0478-.0529-.0199-.1227-.078-.0923a4.25842,4.25842,0,0,1-2.6502.4283c-.0222-.1684.6224-2.0894.5298-2.1076a5.17432,5.17432,0,0,0-1.3769.1434c.59721-2.5832,1.6036-5.0497,2.1596-7.6309a.081.081,0,0,0-.1496-.0565,42.9189,42.9189,0,0,0-2.6754,8.12C385.73779,183.0628,387.006,182.7645,387.25429,182.6923Z" style="fill:#263238"/><path d="M387.26739,184.3053a3.48181,3.48181,0,0,0,1.1441,1.3417,1.56676,1.56676,0,0,0,.9192.2521c.7105-.0367.8562-.6513.8427-1.2061a3.73969,3.73969,0,0,0-.1331-.8727A4.50736,4.50736,0,0,1,387.26739,184.3053Z" style="fill:#263238"/><path d="M388.41149,185.647a1.56676,1.56676,0,0,0,.9192.2521c.7105-.0367.8562-.6513.8427-1.2061A1.61769,1.61769,0,0,0,388.41149,185.647Z" style="fill:#ff98b9"/><path d="M405.35829,183.2858c-1.3297-.2693-4.3-4.4522-3.4919-10.9434,0,0-.3227,5.8793-.0061,6.7929.3169.9136-1.6588-2.3521-1.08-7.5965a21.351,21.351,0,0,1-5.7514,2.0219c-2.56389.3428-4.0696.1062-4.2207-.097-.151-.2034,3.6397-.834,4.781-1.827,0,0-6.9914,2.1231-10.04819,1.9264-.35361-.0227.24559-7.2755,5.35179-9.6678,5.1061-2.3924,12.0465,1.9511,13.766,4.1557,0,0,2.2916.6632,4.34421,4.4806C411.05579,176.349,406.79049,183.5756,405.35829,183.2858Z" style="fill:#263238"/><path d="M449.09459,401.8543l-19.4419,3.875-12.727,2.536s-13.0784-53.406-15.2914-76.4665c-2.099-21.8639-5.19529-56.4073-1.0638-87.8639h24.6182c2.0895,3.6471,12.2996,16.6591,6.9239,37.3452-.7598,2.9253.9688,29.5381,3.7041,47.6028C438.37159,345.656,449.09459,401.8543,449.09459,401.8543Z" style="fill:#37474f"/><path d="M429.65269,405.7293l-12.727,2.536s-13.0784-53.406-15.2914-76.4665c-2.099-21.8639-5.19529-56.4073-1.0638-87.8639h8.6959C413.379,273.7389,425.16979,373.3325,429.65269,405.7293Z" style="fill:#263238"/><path d="M449.72109,406.4629c.31591,2.0155.6186,4.0014.8953,5.9285.1751,1.199.3371,2.3686.4924,3.4997,1.0019,7.2821,1.5653,12.895,1.00921,13.3954-1.70791,1.5475-52.02091,10.3736-53.88421,10.1001-1.857-.2826-1.1891-5.6082.4898-7.5076,1.0228-1.1518,7.9837-6.0398,13.28641-9.6903a.09539.09539,0,0,0,.02049-.0194c3.411-2.3408,6.131-4.1818,6.131-4.1818l-1.1803-5.8793L411.557,385.3416l33.67179-5.8059S447.69349,393.37,449.72109,406.4629Z" style="fill:#ebebeb"/><path d="M413.69489,416.4779c2.7904-1.9907,6.7455-3.2589,10.0922-2.1673.1297.0423.0677.2258-.0458.2407a47.37532,47.37532,0,0,0-9.8547,2.307A.21551.21551,0,0,1,413.69489,416.4779Z" style="fill:#263238"/><path d="M413.22,413.724c2.79049-1.9908,6.74559-3.2589,10.09219-2.1674.12981.0424.06781.2259-.0458.2408a47.37442,47.37442,0,0,0-9.8546,2.307A.21554.21554,0,0,1,413.22,413.724Z" style="fill:#263238"/><path d="M412.74509,410.9701c2.7905-1.9908,6.7456-3.2589,10.0923-2.1674.1297.0423.0677.2259-.0458.2408a47.37511,47.37511,0,0,0-9.8547,2.3069A.21549.21549,0,0,1,412.74509,410.9701Z" style="fill:#263238"/><path d="M412.27029,408.2162c2.7904-1.9909,6.7455-3.2589,10.0922-2.1674.1298.0423.0678.2259-.0458.2408a47.36785,47.36785,0,0,0-9.8546,2.3069A.2155.2155,0,0,1,412.27029,408.2162Z" style="fill:#263238"/><path d="M411.79539,405.4622c2.7905-1.9908,6.74561-3.2589,10.0923-2.1673.1297.0422.0677.2259-.0458.2408a47.36891,47.36891,0,0,0-9.8547,2.3069A.21554.21554,0,0,1,411.79539,405.4622Z" style="fill:#263238"/><path d="M452.58,429.51c-1.2,1.7-26.56,6.18-42.73,8.66-7.42,1.13-12.89,1.85-13.21,1.68-1.02-.56-.94-5.86,2.25-9.79,1.77-2.18,10.85-8.36,15.03-11.17,1.31-.87,2.14-1.41,2.14-1.41l-3.61-17.04-.78-3.68-.81-3.83c1.05-.01,36.71-6.34,36.71-6.34s.25,1.5.64,3.94c.18,1.07.38,2.33.6,3.72C450.66,406.1,453.84,427.72,452.58,429.51Z" style="fill:#ffc727"/><rect x="395.54187" y="434.27957" width="58.32254" height="3.26365" transform="translate(-67.89419 78.50493) rotate(-9.7832)" style="fill:#263238"/><path d="M448.81,394.25l-36.36,6.19-.78-3.68,36.54-6.23C448.39,391.6,448.59,392.86,448.81,394.25Z" style="opacity:0.1"/><path d="M413.92439,418.8933l-4.0745,19.2804c-7.4178,1.1303-12.8885,1.8426-13.2115,1.6716-1.0162-.5509-.9402-5.8506,2.2511-9.7827C400.656,427.8781,409.73589,421.6951,413.92439,418.8933Z" style="fill:#263238"/><path d="M413.26279,280.1612c-.0079.0234-4.4622,32.8401-6.08,49.3696-.4065,4.1186-.8832,50.5965-.8832,60.8112v7.362c-.0078,9.4253-.0078,16.1308-.0078,16.1308h-33.3872s-.0077-.3126-.01559-.8987c-.00781-.3126-.01561-.6956-.01561-1.1567-.0156-.4689-.02339-1.0081-.0312-1.6256-.0079-.3594-.0157-.7502-.0235-1.1567-.0391-2.8135-.1016-6.7055-.1719-11.2462-.0313-2.3211-.0626-4.8065-.09379-7.4089-.25791-20.2183,6.852-129.2902,13.74709-146.4049h35.8721S428.08059,264.0459,413.26279,280.1612Z" style="fill:#37474f"/><path d="M424.83889,272.5354c-2.6588,1.4962-5.3053,3.0179-7.9634,4.5175-1.3101.739-2.6467,1.4297-3.9714,2.1416-1.348.7244-2.7627,1.3339-4.08309,2.107-.08021.0469-.01941.1591.06369.1412a28.32646,28.32646,0,0,0,4.4677-1.5265,42.29405,42.29405,0,0,0,4.0935-1.9402,35.45566,35.45566,0,0,0,7.5004-5.3082C425.02019,272.5992,424.92109,272.4891,424.83889,272.5354Z" style="fill:#263238"/><path d="M392.39569,244.7484a274.28087,274.28087,0,0,0-5.8664,31.6423c-1.3244,10.7542-2.2075,21.5805-3.1838,32.371-1.9651,21.7201-3.6669,43.4766-4.1601,65.2866q-.4143,18.312.7269,36.6242a.07817.07817,0,0,0,.1562-.0039c-.6534-21.6722.0456-43.3873,1.4267-65.0191.6952-10.8883,1.576-21.7644,2.5333-32.6323.9471-10.7535,1.86051-21.5149,2.9548-32.2544a293.32778,293.32778,0,0,1,5.7611-35.9274A.1798.1798,0,0,0,392.39569,244.7484Z" style="fill:#263238"/><path d="M406.23859,417.6434c-.0312,2.0398-.0704,4.0484-.1251,5.9944-.0312,1.2114-.0703,2.3915-.1094,3.5325-.25009,7.3464-.6487,12.9735-1.2817,13.3721-1.946,1.2348-53.027,1.3833-54.8168.7971-1.7819-.5939-.2189-5.7286,1.75841-7.3151,1.20369-.9613,8.89389-4.5955,14.73979-7.2918a.09653.09653,0,0,0,.0234-.0156c3.7592-1.7272,6.7525-3.0792,6.7525-3.0792l-.1642-5.9944-.7971-27.299h34.1687S406.46519,404.3964,406.23859,417.6434Z" style="fill:#ebebeb"/><path d="M369.03449,421.3912c3.0881-1.4877,7.2012-2.0653,10.3137-.421.1207.0637.0284.2341-.086.2295a47.37192,47.37192,0,0,0-10.1034.5989A.2155.2155,0,0,1,369.03449,421.3912Z" style="fill:#263238"/><path d="M369.03449,418.5966c3.0881-1.4877,7.2012-2.0652,10.3137-.421.1207.0638.0284.2342-.086.2296a47.35892,47.35892,0,0,0-10.1034.5989A.21556.21556,0,0,1,369.03449,418.5966Z" style="fill:#263238"/><path d="M369.03449,415.802c3.0881-1.4876,7.2012-2.0653,10.3137-.4209.1207.0637.0284.2341-.086.2295a47.37186,47.37186,0,0,0-10.1034.5988A.2155.2155,0,0,1,369.03449,415.802Z" style="fill:#263238"/><path d="M369.03449,413.0075c3.0881-1.4877,7.2012-2.0653,10.3137-.4209.1207.0637.0284.234-.086.2294a47.37192,47.37192,0,0,0-10.1034.5989A.21551.21551,0,0,1,369.03449,413.0075Z" style="fill:#263238"/><path d="M369.03449,410.2129c3.0881-1.4877,7.2012-2.0653,10.3137-.4209.1207.0636.0284.2341-.086.2295a47.37837,47.37837,0,0,0-10.1034.5988A.2155.2155,0,0,1,369.03449,410.2129Z" style="fill:#263238"/><path d="M407.49,397.7s-.01,1.43-.03,3.76c-.01,1.08-.03,2.35-.05,3.77-.18,11.94-.71,34.05-2.27,35.61-2.14,2.15-55.97,1.4-56.88.68-.91-.71.07-5.92,3.87-9.26,2.78-2.42,19.06-9.48,19.06-9.48l-.66-17.55-.15-3.77-.14-3.76C371.28,397.87,407.49,397.7,407.49,397.7Z" style="fill:#ffc727"/><rect x="347.41929" y="440.7808" width="58.3225" height="3.2637" style="fill:#263238"/><path d="M407.46,401.46c-.01,1.08-.03,2.35-.05,3.77H370.53l-.15-3.77Z" style="opacity:0.1"/><path d="M384.31379,230.9913l-3.3023,21.5184,51.3158-.3378s-10.1155-40.9856-20.8697-53.8785c-3.9412-4.7249-11.9424-3.6302-16.0542.8442-4.3111,4.6912-12.6087,15.244-13.66139,21.1094C380.82549,225.4218,384.31379,230.9913,384.31379,230.9913Z" style="fill:#ffc727"/><path d="M393.24549,204.5241a.469.469,0,1,1-.4689-.469A.46886.46886,0,0,1,393.24549,204.5241Z" style="fill:#fff"/><path d="M401.34719,204.5241a.469.469,0,1,1-.469-.469A.46894.46894,0,0,1,401.34719,204.5241Z" style="fill:#fff"/><path d="M409.44879,204.5241a.469.469,0,1,1-.4689-.469A.46886.46886,0,0,1,409.44879,204.5241Z" style="fill:#fff"/><path d="M397.29629,198.5119a.469.469,0,1,1-.4689-.4689A.46894.46894,0,0,1,397.29629,198.5119Z" style="fill:#fff"/><path d="M405.398,198.5119a.469.469,0,1,1-.469-.4689A.469.469,0,0,1,405.398,198.5119Z" style="fill:#fff"/><path d="M385.14389,216.6763a.46895.46895,0,1,1-.469-.469A.46894.46894,0,0,1,385.14389,216.6763Z" style="fill:#fff"/><path d="M393.24549,216.6763a.469.469,0,1,1-.4689-.469A.46886.46886,0,0,1,393.24549,216.6763Z" style="fill:#fff"/><path d="M401.34719,216.6763a.469.469,0,1,1-.469-.469A.46894.46894,0,0,1,401.34719,216.6763Z" style="fill:#fff"/><path d="M409.44879,216.6763a.469.469,0,1,1-.4689-.469A.46886.46886,0,0,1,409.44879,216.6763Z" style="fill:#fff"/><path d="M417.55049,216.6763a.469.469,0,1,1-.469-.469A.46894.46894,0,0,1,417.55049,216.6763Z" style="fill:#fff"/><path d="M389.19469,210.6641a.469.469,0,1,1-.469-.4689A.469.469,0,0,1,389.19469,210.6641Z" style="fill:#fff"/><path d="M397.29629,210.6641a.469.469,0,1,1-.4689-.4689A.46894.46894,0,0,1,397.29629,210.6641Z" style="fill:#fff"/><path d="M405.398,210.6641a.469.469,0,1,1-.469-.4689A.469.469,0,0,1,405.398,210.6641Z" style="fill:#fff"/><path d="M413.49959,210.6641a.469.469,0,1,1-.4689-.4689A.46894.46894,0,0,1,413.49959,210.6641Z" style="fill:#fff"/><path d="M385.14389,228.8285a.46895.46895,0,1,1-.469-.469A.469.469,0,0,1,385.14389,228.8285Z" style="fill:#fff"/><path d="M393.24549,228.8285a.469.469,0,1,1-.4689-.469A.46894.46894,0,0,1,393.24549,228.8285Z" style="fill:#fff"/><circle cx="400.87819" cy="228.8285" r="0.469" style="fill:#fff"/><path d="M409.44879,228.8285a.469.469,0,1,1-.4689-.469A.46894.46894,0,0,1,409.44879,228.8285Z" style="fill:#fff"/><circle cx="417.08149" cy="228.8285" r="0.469" style="fill:#fff"/><path d="M425.65209,228.8285a.469.469,0,1,1-.469-.469A.469.469,0,0,1,425.65209,228.8285Z" style="fill:#fff"/><path d="M389.19469,222.8163a.469.469,0,1,1-.469-.4689A.469.469,0,0,1,389.19469,222.8163Z" style="fill:#fff"/><path d="M397.29629,222.8163a.469.469,0,1,1-.4689-.4689A.46894.46894,0,0,1,397.29629,222.8163Z" style="fill:#fff"/><path d="M405.398,222.8163a.469.469,0,1,1-.469-.4689A.469.469,0,0,1,405.398,222.8163Z" style="fill:#fff"/><path d="M413.49959,222.8163a.469.469,0,1,1-.4689-.4689A.46894.46894,0,0,1,413.49959,222.8163Z" style="fill:#fff"/><path d="M421.60129,222.8163a.469.469,0,1,1-.469-.4689A.469.469,0,0,1,421.60129,222.8163Z" style="fill:#fff"/><path d="M385.14389,240.9807a.46895.46895,0,1,1-.469-.469A.469.469,0,0,1,385.14389,240.9807Z" style="fill:#fff"/><path d="M393.24549,240.9807a.469.469,0,1,1-.4689-.469A.46894.46894,0,0,1,393.24549,240.9807Z" style="fill:#fff"/><circle cx="400.87819" cy="240.9807" r="0.469" style="fill:#fff"/><path d="M409.44879,240.9807a.469.469,0,1,1-.4689-.469A.46894.46894,0,0,1,409.44879,240.9807Z" style="fill:#fff"/><circle cx="417.08149" cy="240.9807" r="0.469" style="fill:#fff"/><path d="M425.65209,240.9807a.469.469,0,1,1-.469-.469A.469.469,0,0,1,425.65209,240.9807Z" style="fill:#fff"/><path d="M389.19469,234.9686a.469.469,0,1,1-.469-.469A.46894.46894,0,0,1,389.19469,234.9686Z" style="fill:#fff"/><path d="M397.29629,234.9686a.469.469,0,1,1-.4689-.469A.46886.46886,0,0,1,397.29629,234.9686Z" style="fill:#fff"/><path d="M405.398,234.9686a.469.469,0,1,1-.469-.469A.46894.46894,0,0,1,405.398,234.9686Z" style="fill:#fff"/><path d="M413.49959,234.9686a.469.469,0,1,1-.4689-.469A.46886.46886,0,0,1,413.49959,234.9686Z" style="fill:#fff"/><path d="M421.60129,234.9686a.469.469,0,1,1-.469-.469A.46894.46894,0,0,1,421.60129,234.9686Z" style="fill:#fff"/><path d="M389.19469,247.1208a.469.469,0,1,1-.469-.469A.46894.46894,0,0,1,389.19469,247.1208Z" style="fill:#fff"/><path d="M397.29629,247.1208a.469.469,0,1,1-.4689-.469A.46886.46886,0,0,1,397.29629,247.1208Z" style="fill:#fff"/><path d="M405.398,247.1208a.469.469,0,1,1-.469-.469A.46894.46894,0,0,1,405.398,247.1208Z" style="fill:#fff"/><path d="M413.49959,247.1208a.469.469,0,1,1-.4689-.469A.46886.46886,0,0,1,413.49959,247.1208Z" style="fill:#fff"/><path d="M421.60129,247.1208a.469.469,0,1,1-.469-.469A.46894.46894,0,0,1,421.60129,247.1208Z" style="fill:#fff"/><path d="M429.70289,247.1208a.46895.46895,0,1,1-.46889-.469A.46885.46885,0,0,1,429.70289,247.1208Z" style="fill:#fff"/><path d="M430.29909,249.221c-1.4885-.1476-3.00109-.1324-4.4986-.1666q-2.2998-.0525-4.5999-.0978c-3.0663-.0606-6.13259-.0937-9.19959-.1252-6.17311-.0636-12.34741-.2104-18.52071.0067-1.7381.0611-3.477.1112-5.2145.1842-1.7363.0729-3.47579.2193-5.212.2615a.067.067,0,1,0,.0055.1329c1.5736-.0161,3.1548.0698,4.7292.0918,1.4926.0209,2.9854.0312,4.4782.0479,3.0664.0341,6.13331.0296,9.20031.0146,6.12859-.03,12.25659-.1347,18.38569-.1611q2.6085-.01125,5.2169-.0102c1.732-.0003,3.4866.0737,5.2142-.0475C430.36659,249.3464,430.39079,249.2301,430.29909,249.221Z" style="fill:#263238"/><path d="M402.21579,205.8c-3.4663,5.6503-16.9465,19.5224-27.0695,22.2101-8.82529,2.3431-30.1979-6.6002-36.89629-10.2752-2.50591-1.3749,4.80409-22.562,7.68209-21.5334,3.8642,1.381,24.4295,13.1938,26.6035,12.4896,2.174-.7043,18.5876-8.0733,22.4255-9.8717C403.69959,194.7246,407.42519,197.3084,402.21579,205.8Z" style="fill:#dd6a57"/><path d="M346.69559,196.6665s-11.14859-5.9232-13.4684-7.2637c-4.653-2.6888-23.9117-7.6963-26.2964-7.4901-2.3847.2063-4.7587,4.8439,11.0943,10.6365,0,0-3.4055,6.9695-1.3299,10.1698,1.3492,2.0803,6.6736,9.6966,9.1526,10.6578,2.8091,1.0893,12.40221,4.3581,12.40221,4.3581Z" style="fill:#dd6a57"/><path d="M330.76319,194.0833c-.2001.0147-9.944-3.0267-13.4738-2.7012-3.5299.3255-6.1228,5.2067-6.025,6.5428s2.042,9.5729,5.5767,9.3141c3.5348-.2589.93191-6.5052,1.0115-7.2485.0797-.7434.14441-1.6915.8163-1.6713.672.0201,12.7487,4.7011,12.7487,4.7011Z" style="fill:#dd6a57"/><path d="M329.78829,197.2939c-.2.0146-9.944-3.0267-13.4738-2.7013-3.5299.3255-6.1228,5.2067-6.025,6.5428.0979,1.3361,2.042,9.5729,5.5768,9.3141,3.53471-.2588.9318-6.5051,1.0114-7.2485.0797-.7434.1444-1.6914.81631-1.6713.67209.0201,12.74869,4.7012,12.74869,4.7012Z" style="fill:#dd6a57"/><path d="M329.82059,199.1929c-.1958.0438-10.2803-1.5367-13.7243-.6974-3.4441.8393-5.2936,6.0478-5.001,7.3551.2926,1.3074,3.4228,9.1703,6.8815,8.3962,3.4587-.774-.0316-6.5714-.06179-7.3184-.03011-.7471-.105-1.6944.56259-1.7729.6678-.0786,13.3,2.782,13.3,2.782Z" style="fill:#dd6a57"/><path d="M331.73689,202.3948c-3.3218-.6417-7.0798-1.6435-10.57489-1.0511-3.49491.5924-5.70991,5.6563-5.51091,6.9812.19891,1.3249,2.7625,9.3903,6.2674,8.864,3.505-.5263.4354-6.557.45851-7.3044.023-.7473.01549-1.6975.68709-1.7284s13.0687,3.7201,13.0687,3.7201Z" style="fill:#dd6a57"/><path d="M328.19239,191.354a15.37047,15.37047,0,0,0-5.3941-.7189,24.91869,24.91869,0,0,0-3.4092.3164,15.833,15.833,0,0,0-4.798,1.4666c-.0988.0643-.121.1787-.0214.1322a22.27382,22.27382,0,0,1,4.7919-1.0316c1.15141-.1148,2.2978-.213,3.4538-.2714a39.46769,39.46769,0,0,1,5.3713.1605C328.21819,191.4095,328.22149,191.3614,328.19239,191.354Z" style="fill:#263238"/><path d="M328.05219,194.5366a48.10386,48.10386,0,0,0-9.2764-.0309,10.8494,10.8494,0,0,0-4.4231,1.2503c-.63169.3529-2.6999,1.7298-3.1395,2.6464-.0519.1082.0582.1781.1253.0912a15.40682,15.40682,0,0,1,3.638-2.302,16.52885,16.52885,0,0,1,4.6521-1.1079,67.87812,67.87812,0,0,1,8.35841-.4036C328.03759,194.6801,328.36559,194.5632,328.05219,194.5366Z" style="fill:#263238"/><path d="M327.46379,197.7783a62.52962,62.52962,0,0,0-9.3636.858,8.63629,8.63629,0,0,0-4.5508,1.9495,9.51454,9.51454,0,0,0-2.5109,4.2009c-.03049.0968.095.1658.1371.0751a11.60483,11.60483,0,0,1,2.8223-3.721,10.11326,10.11326,0,0,1,4.7399-1.9917,58.99434,58.99434,0,0,1,8.7609-1.0706C328.00659,198.0347,327.93149,197.7756,327.46379,197.7783Z" style="fill:#263238"/><path d="M326.54809,201.2085c-1.1856.229-4.3347.8588-5.5029,1.1638a7.35856,7.35856,0,0,0-2.973,1.1848,9.1651,9.1651,0,0,0-1.7685,2.3242,7.025,7.025,0,0,0-1.1054,2.7801c-.2669,2.2462,1.6421,3.9043,2.6993,5.6741.0516.0864.1843.0039.1327-.0825-.5501-.9212-1.0107-1.9072-1.47229-2.8757a4.47907,4.47907,0,0,1-.52591-3.0313,8.25708,8.25708,0,0,1,1.2425-2.5362,5.572,5.572,0,0,1,1.9163-2.1176,15.00688,15.00688,0,0,1,2.9843-.9192c1.00881-.2653,2.9346-.7631,3.9514-.9971C328.23439,201.2905,328.82709,200.7685,326.54809,201.2085Z" style="fill:#263238"/><path d="M332.38219,210.8045a21.89568,21.89568,0,0,1-5.5537-.6561,13.76,13.76,0,0,1-2.2734-.8922,6.29025,6.29025,0,0,1-2.0256-1.3753c-.0648-.0755-.176.0392-.1073.1136a11.97093,11.97093,0,0,0,1.6047,1.5705,11.77461,11.77461,0,0,1-3.12089,1.326c-.09331.0189-.05541.1463.025.1528a3.48708,3.48708,0,0,0,.99269-.0547,4.28628,4.28628,0,0,0,.9794-.3562,7.249,7.249,0,0,0,1.3617-.8937,7.61819,7.61819,0,0,0,2.2646.965,16.31734,16.31734,0,0,0,5.8559.2175A.05866.05866,0,0,0,332.38219,210.8045Z" style="fill:#263238"/><path d="M344.03269,193.5685l-5.8431,29.6035s26.3965,7.443,35.4793,5.7705c9.0829-1.6724,22.1353-12.9494,28.1757-22.0034,6.0403-9.0541,3.88741-13.897-8.1961-8.633-12.0836,5.264-19.9718,8.1066-21.2429,8.3171C371.13449,206.8338,344.03269,193.5685,344.03269,193.5685Z" style="fill:#ffc727"/><path d="M344.63569,204.5241a.469.469,0,1,1-.469-.469A.46894.46894,0,0,1,344.63569,204.5241Z" style="fill:#fff"/><path d="M352.73729,204.5241a.469.469,0,1,1-.469-.469A.46894.46894,0,0,1,352.73729,204.5241Z" style="fill:#fff"/><path d="M360.839,204.5241a.469.469,0,1,1-.469-.469A.46894.46894,0,0,1,360.839,204.5241Z" style="fill:#fff"/><path d="M385.14389,204.5241a.46895.46895,0,1,1-.469-.469A.46894.46894,0,0,1,385.14389,204.5241Z" style="fill:#fff"/><path d="M393.24549,204.5241a.469.469,0,1,1-.4689-.469A.46886.46886,0,0,1,393.24549,204.5241Z" style="fill:#fff"/><path d="M401.34719,204.5241a.469.469,0,1,1-.469-.469A.46894.46894,0,0,1,401.34719,204.5241Z" style="fill:#fff"/><path d="M348.68649,198.5119a.469.469,0,1,1-.469-.4689A.469.469,0,0,1,348.68649,198.5119Z" style="fill:#fff"/><path d="M397.29629,198.5119a.469.469,0,1,1-.4689-.4689A.46894.46894,0,0,1,397.29629,198.5119Z" style="fill:#fff"/><path d="M405.398,198.5119a.469.469,0,1,1-.469-.4689A.469.469,0,0,1,405.398,198.5119Z" style="fill:#fff"/><path d="M344.63569,216.6763a.469.469,0,1,1-.469-.469A.46894.46894,0,0,1,344.63569,216.6763Z" style="fill:#fff"/><path d="M352.73729,216.6763a.469.469,0,1,1-.469-.469A.46894.46894,0,0,1,352.73729,216.6763Z" style="fill:#fff"/><path d="M360.839,216.6763a.469.469,0,1,1-.469-.469A.46894.46894,0,0,1,360.839,216.6763Z" style="fill:#fff"/><path d="M368.94059,216.6763a.469.469,0,1,1-.469-.469A.46894.46894,0,0,1,368.94059,216.6763Z" style="fill:#fff"/><path d="M377.04219,216.6763a.469.469,0,1,1-.4689-.469A.46886.46886,0,0,1,377.04219,216.6763Z" style="fill:#fff"/><path d="M385.14389,216.6763a.46895.46895,0,1,1-.469-.469A.46894.46894,0,0,1,385.14389,216.6763Z" style="fill:#fff"/><path d="M393.24549,216.6763a.469.469,0,1,1-.4689-.469A.46886.46886,0,0,1,393.24549,216.6763Z" style="fill:#fff"/><path d="M348.68649,210.6641a.469.469,0,1,1-.469-.4689A.469.469,0,0,1,348.68649,210.6641Z" style="fill:#fff"/><path d="M356.78809,210.6641a.469.469,0,1,1-.4689-.4689A.46894.46894,0,0,1,356.78809,210.6641Z" style="fill:#fff"/><path d="M364.88979,210.6641a.469.469,0,1,1-.469-.4689A.469.469,0,0,1,364.88979,210.6641Z" style="fill:#fff"/><path d="M372.99139,210.6641a.469.469,0,1,1-.4689-.4689A.46894.46894,0,0,1,372.99139,210.6641Z" style="fill:#fff"/><path d="M381.09309,210.6641a.469.469,0,1,1-.469-.4689A.469.469,0,0,1,381.09309,210.6641Z" style="fill:#fff"/><path d="M389.19469,210.6641a.469.469,0,1,1-.469-.4689A.469.469,0,0,1,389.19469,210.6641Z" style="fill:#fff"/><path d="M397.29629,210.6641a.469.469,0,1,1-.4689-.4689A.46894.46894,0,0,1,397.29629,210.6641Z" style="fill:#fff"/><path d="M368.94059,228.8285a.469.469,0,1,1-.469-.469A.469.469,0,0,1,368.94059,228.8285Z" style="fill:#fff"/><path d="M340.58479,222.8163a.469.469,0,1,1-.4689-.4689A.46894.46894,0,0,1,340.58479,222.8163Z" style="fill:#fff"/><path d="M348.68649,222.8163a.469.469,0,1,1-.469-.4689A.469.469,0,0,1,348.68649,222.8163Z" style="fill:#fff"/><path d="M356.78809,222.8163a.469.469,0,1,1-.4689-.4689A.46894.46894,0,0,1,356.78809,222.8163Z" style="fill:#fff"/><path d="M364.88979,222.8163a.469.469,0,1,1-.469-.4689A.469.469,0,0,1,364.88979,222.8163Z" style="fill:#fff"/><path d="M372.99139,222.8163a.469.469,0,1,1-.4689-.4689A.46894.46894,0,0,1,372.99139,222.8163Z" style="fill:#fff"/><path d="M381.09309,222.8163a.469.469,0,1,1-.469-.4689A.469.469,0,0,1,381.09309,222.8163Z" style="fill:#fff"/><path d="M348.63089,198.9125c-.9624,4.0105-1.9573,8.0136-2.92589,12.0227-.47531,1.967-.96091,3.9303-1.41321,5.9028-.4687,2.0442-1.0075,4.0989-1.3642,6.1631-.0057.0324.0432.0575.0576.0226.7699-1.8651,1.3529-3.8447,1.9346-5.7788.5951-1.9788,1.1095-3.9745,1.585-5.9851.9617-4.0668,1.698-8.1719,2.2778-12.3094C348.79629,198.8529,348.65489,198.8127,348.63089,198.9125Z" style="fill:#263238"/><path d="M395.819,217.1068c-2.37391,1.2901-4.75,2.6735-7.02741,4.127-2.311,1.4751-4.4065,3.179-6.5709,4.852-.07769.0601-.0046.1884.0822.133,2.2905-1.463,4.642-2.8024,6.8837-4.3456.2608-.1795.5182-.3658.7787-.5462.58871-.1555,1.1689-.3577,1.7432-.5431a12.649,12.649,0,0,0,1.30951-.4926,12.39343,12.39343,0,0,1,1.34209-.5646.07819.07819,0,0,0-.0452-.1496c-.4611.1453-.9432.2203-1.416.3204a10.53058,10.53058,0,0,0-1.3406.3899c-.0737.0262-.149.0527-.2234.0789,1.514-1.057,3.0303-2.1123,4.5334-3.1798A.04688.04688,0,0,0,395.819,217.1068Z" style="fill:#263238"/><path d="M401.045,181.4785s3.24489-3.4281,4.83919-2.2155c1.594,1.2124-1.2433,6.4595-3.3946,6.9148a2.09565,2.09565,0,0,1-2.6117-1.5277Z" style="fill:#dd6a57"/><path d="M405.03339,180.7468a.02846.02846,0,0,1,.0027.0561,5.29745,5.29745,0,0,0-3.1966,2.8752,1.15692,1.15692,0,0,1,1.7589-.058c.0332.032-.0112.0851-.0502.0706a1.28887,1.28887,0,0,0-1.4694.2361,6.22645,6.22645,0,0,0-.8412,1.0351c-.0857.1178-.3063.0151-.2358-.1248l.0167-.0313C401.25369,182.9781,403.04949,180.639,405.03339,180.7468Z" style="fill:#263238"/></g><g id="Character_1" data-name="Character 1"><path d="M147.47849,435.1417c-1.8026.6102-53.4613.7915-55.436-.4465-.7513-.4655-1.21649-7.9876-1.52049-17.0926-.06611-1.9663-.122-3.9969-.16721-6.0597l-4.1891-27.5532,34.534-.2213,3.26,27.5591-.1323,6.0617s19.80961,8.7769,21.8294,10.3673C147.66569,429.3469,149.28079,434.5316,147.47849,435.1417Z" style="fill:#ad6359"/><path d="M147.47849,435.1417c-1.8026.6102-53.4613.7915-55.436-.4465-.9124-.5714-1.4103-11.5564-1.6877-23.1523l33.6049-.2154-.1323,6.0617s19.80961,8.7769,21.8294,10.3673C147.66569,429.3469,149.28079,434.5316,147.47849,435.1417Z" style="fill:#fff"/><path d="M147.47849,435.1417c-1.8026.6102-53.4613.7915-55.436-.4465-.7513-.4655-1.21649-7.9876-1.52049-17.0926l33.30539-.2134s19.80961,8.7769,21.8294,10.3673C147.66569,429.3469,149.28079,434.5316,147.47849,435.1417Z" style="fill:#ffc727"/><path d="M146.73019,433.0779c-8.66019-.1822-43.6075-.0998-52.182.3783-.0698.0037-.0696.0512.0002.0542,8.5799.3681,43.5254.0026,52.1828-.2906C146.91369,433.2136,146.91309,433.0817,146.73019,433.0779Z" style="fill:#263238"/><path d="M142.32749,425.9099a6.956,6.956,0,0,0-5.173,2.1328,6.73931,6.73931,0,0,0-1.919,4.6303c.0019.0514.097.0525.1046-.0007a8.03854,8.03854,0,0,1,6.9881-6.6539A.05429.05429,0,0,0,142.32749,425.9099Z" style="fill:#263238"/><path d="M127.18929,418.2386c-3.46629-.0359-7.48029,1.2016-9.6241,4.0438-.08319.1102.0745.2266.1773.1733a47.90732,47.90732,0,0,1,9.508-3.7906A.218.218,0,0,0,127.18929,418.2386Z" style="fill:#263238"/><path d="M129.86859,419.2724c-3.4663-.036-7.4802,1.2015-9.6242,4.0437-.083.1102.0747.2266.1774.1731a47.91237,47.91237,0,0,1,9.5081-3.7904A.218.218,0,0,0,129.86859,419.2724Z" style="fill:#263238"/><path d="M132.54809,420.3061c-3.4663-.0359-7.4805,1.2016-9.6243,4.0438-.0832.1101.0747.2265.1774.1731a47.90051,47.90051,0,0,1,9.5081-3.7904A.218.218,0,0,0,132.54809,420.3061Z" style="fill:#263238"/><path d="M135.22729,421.3399c-3.4662-.036-7.4802,1.2015-9.6241,4.0437-.08319.1101.0746.2265.1774.1732a47.91243,47.91243,0,0,1,9.508-3.7906A.21788.21788,0,0,0,135.22729,421.3399Z" style="fill:#263238"/><path d="M96.725,425.2233c-3.88861.025-3.85641,6.0684.03869,6.0435C100.65249,431.2417,100.62029,425.1983,96.725,425.2233Z" style="fill:#263238"/><path d="M130.90249,408.9768c-1.75949-1.4486-3.9648-.0192-5.0412,1.4952a18.18636,18.18636,0,0,0-3.1184,8.8742.09123.09123,0,0,0,.1085.0988.423.423,0,0,0,.6243.2775c2.4617-1.7156,5.3062-3.2446,7.1681-5.6645C131.73079,412.6453,132.56669,410.347,130.90249,408.9768Zm-4.22649,7.3815c-1.19031.8731-2.41611,1.6826-3.57371,2.5995a54.479,54.479,0,0,1,1.935-5.1426,19.59965,19.59965,0,0,1,1.2579-2.3424c.7491-1.1477,4.1409-4.0565,4.499-.2866C130.99179,413.2646,128.09449,415.3173,126.676,416.3583Z" style="fill:#263238"/><path d="M114.13609,420.6613c3.0194.453,6.1294-.4172,9.09291-.8875a.4229.4229,0,0,0,.25729-.6329.09086.09086,0,0,0,.0099-.1462,18.18586,18.18586,0,0,0-8.3997-4.2334c-1.8258-.3448-4.4059.1539-4.6697,2.4176C110.17759,419.3202,112.37339,420.3968,114.13609,420.6613Zm-2.0994-1.9653c-2.3556-2.965,2.10531-3.2203,3.4409-2.9125a19.55014,19.55014,0,0,1,2.5303.8159,54.46611,54.46611,0,0,1,4.96011,2.3645c-1.47.1417-2.91441.4081-4.37781.6041C116.84629,419.8015,113.33519,420.3307,112.03669,418.696Z" style="fill:#263238"/><path d="M127.09,408.94l-41.73.75s-5.68-36.92-9.42-59.9c-1.41-8.63-2.53-15.29-2.98-17.3-1.08-4.79-22.23-80.83-22.23-80.83l30.34-.04,10.36-.01s-.66,12.71-.27,14.05c5.41,18.4,16.47,51.04,19.92,62.41C116.38,345.57,127.09,408.94,127.09,408.94Z" style="fill:#455a64"/><path d="M123.29529,402.5436c-5.9929-.0435-27.2288-.2828-35.2058.4615-.0609.0057-.0592.1065.00151.1152,2.74539.3943,29.21629-.2196,35.20639-.4117A.08253.08253,0,1,0,123.29529,402.5436Z" style="fill:#263238"/><path d="M86.04189,371.0759q-2.16345-14.32305-4.8235-28.5666c-.8772-4.6726-1.8302-9.3335-3.0486-13.9306-1.2329-4.6521-2.7744-9.2126-4.3417-13.7605-3.11619-9.0424-6.11409-18.1211-8.90189-27.2705q-4.1778-13.712-7.8414-27.58c-.3081-1.1727-.6193-2.3417-.9546-3.5067-.0283-.0981-.1694-.0518-.1496.0452.9491,4.6591,2.1765,9.2743,3.3611,13.8786q1.7784,6.9126,3.7607,13.768,3.9738,13.7781,8.6231,27.35c1.54869,4.5066,3.15169,8.9969,4.52209,13.5622,1.3681,4.5573,2.4396,9.1913,3.3899,13.8519,1.92751,9.4529,3.5641,18.9729,5.0889,28.4982,1.5328,9.5757,2.8153,19.1798,4.0921,28.7917q.2427,1.82715.4773,3.6553c.04421.3437.5845.3394.5467-.0134C88.81219,390.23,87.48659,380.6405,86.04189,371.0759Z" style="fill:#263238"/><path d="M81.07,251.62l-5.13,98.17c-1.41-8.63-2.53-15.29-2.98-17.3-1.08-4.79-22.23-80.83-22.23-80.83Z" style="fill:#263238"/><path d="M94.062,443.9196c-1.82361.5604-54.8021-.8738-56.7491-2.1559a.73673.73673,0,0,1-.1995-.3135c-.5793-1.5861.5319-8.32.4749-16.5831,0-.1519.1235-2.7448.2944-6.4299.456-9.6118,1.2823-26.5843,1.2823-26.5843l34.54329.7029-2.289,26.7646-.5318,6.2211s19.57489,9.3078,21.54089,10.9414C94.39439,438.126,95.87609,443.3593,94.062,443.9196Z" style="fill:#ad6359"/><path d="M94.062,443.9196c-1.82361.5604-54.8021-.8738-56.7491-2.1559a.73673.73673,0,0,1-.1995-.3135c-.5793-1.5861.5319-8.32.4749-16.5831,0-.1519.1235-2.7448.2944-6.4299l33.5366.8832-.5318,6.2211s19.57489,9.3078,21.54089,10.9414C94.39439,438.126,95.87609,443.3593,94.062,443.9196Z" style="fill:#fff"/><path d="M94.06049,443.917c-1.8181.5622-54.80439-.8671-56.74549-2.157-.7386-.4853-1.0324-7.5386.2743-16.8867l33.2994.67s19.56979,9.2994,21.54669,10.9428C94.40149,438.1292,95.87839,443.3549,94.06049,443.917Z" style="fill:#ffc727"/><path d="M93.36739,441.834c-8.65239-.4118-43.58959-1.2563-52.17379-1.0059-.0698.0018-.0709.0494-.0012.0542,8.5671.5956,43.51,1.1571,52.17209,1.0936C93.54719,441.9746,93.55009,441.8427,93.36739,441.834Z" style="fill:#263238"/><path d="M89.15639,434.5518a6.95649,6.95649,0,0,0-5.2279,1.9949,6.73957,6.73957,0,0,0-2.0411,4.5777c.0005.0515.09561.055.10461.0021a8.03831,8.03831,0,0,1,7.16219-6.4662A.0543.0543,0,0,0,89.15639,434.5518Z" style="fill:#263238"/><path d="M74.22689,426.4818c-3.46409-.128-7.50959,1.0027-9.728,3.787-.0861.1079.0685.2285.1726.1778a47.92884,47.92884,0,0,1,9.60529-3.537A.2179.2179,0,0,0,74.22689,426.4818Z" style="fill:#263238"/><path d="M76.87789,427.5862c-3.4641-.1279-7.50949,1.0027-9.72819,3.7871-.0858.1078.0688.2284.1728.1776a47.90425,47.90425,0,0,1,9.60519-3.5368A.218.218,0,0,0,76.87789,427.5862Z" style="fill:#263238"/><path d="M79.52889,428.6906c-3.4642-.1279-7.50959,1.0027-9.72809,3.7871-.0861.1078.0687.2284.1728.1778a47.901,47.901,0,0,1,9.60529-3.537A.218.218,0,0,0,79.52889,428.6906Z" style="fill:#263238"/><path d="M82.17979,429.7951c-3.464-.128-7.5094,1.0026-9.728,3.787-.086.1079.0686.2285.1728.1778a47.91261,47.91261,0,0,1,9.60519-3.537A.2179.2179,0,0,0,82.17979,429.7951Z" style="fill:#263238"/><path d="M43.5881,432.6559c-3.8879-.0783-4.0161,5.9639-.1217,6.0424C47.3545,438.7764,47.4826,432.7342,43.5881,432.6559Z" style="fill:#263238"/><path d="M78.18439,417.3216c-1.72039-1.4947-3.9628-.1243-5.0791,1.361a18.18607,18.18607,0,0,0-3.35259,8.7883.09112.09112,0,0,0,.1059.1016.423.423,0,0,0,.6167.2941c2.50629-1.6497,5.39029-3.1027,7.3157-5.4724C78.91509,421.0109,79.81179,418.7354,78.18439,417.3216Zm-4.4208,7.2668c-1.21289.8413-2.45979,1.618-3.64129,2.5038a54.4675,54.4675,0,0,1,2.0708-5.0895,19.58028,19.58028,0,0,1,1.31959-2.3081c.7792-1.1275,4.2469-3.9452,4.5049-.1672C78.16,421.6102,75.20919,423.5854,73.76359,424.5884Z" style="fill:#263238"/><path d="M61.114,428.5574c3.0064.5328,6.1383-.2546,9.1132-.6462a.4228.4228,0,0,0,.2741-.6257.091.091,0,0,0,.0137-.146,18.18436,18.18436,0,0,0-8.2845-4.4546c-1.8159-.3932-4.4083.0368-4.7321,2.2928C57.1925,427.1116,59.3589,428.2462,61.114,428.5574Zm-2.0465-2.0205c-2.2762-3.0264,2.19-3.1632,3.5169-2.8201a19.52118,19.52118,0,0,1,2.5078.8828,54.44133,54.44133,0,0,1,4.8958,2.4951c-1.4734.1027-2.9244.3307-4.3924.4879C63.846,427.7696,60.3222,428.2056,59.0675,426.5369Z" style="fill:#263238"/><path d="M75.26819,416.6755H34.4206s8.8685-126.5902,7.4352-133.688c-2.3461-11.6179-.7778-24.9573,4.7137-31.3787H82.89859s.7203,10.196-3.02959,16.2849c0,0-3.40711,2.1539-5.06361,3.1042Z" style="fill:#455a64"/><path d="M71.4446,410.0782c-5.6556-.1477-4.0305-.185-9.6875-.2698-2.7685-.0415-20.9603-.2967-23.549.1179a.06013.06013,0,0,0-.0006.1152c2.5845.4421,20.7777.3805,23.5463.3685,5.6578-.0243,4.033-.0789,9.6899-.1667A.0826.0826,0,0,0,71.4446,410.0782Z" style="fill:#263238"/><path d="M82.13489,266.2583a69.82518,69.82518,0,0,0-10.21349,6.0506.11891.11891,0,0,0,.1245.2026c3.4551-1.9113,6.989-3.7659,10.3321-5.8578A.2321.2321,0,0,0,82.13489,266.2583Z" style="fill:#263238"/><path d="M77.50869,265.735a16.49611,16.49611,0,0,0-.4932,2.1468,4.56872,4.56872,0,0,0-.1092,1.7313c.025.1085.1772.1022.2296.0208a5.902,5.902,0,0,0,.5643-1.7363c.1734-.6663.362-1.3298.5157-2.0004C78.31809,265.4523,77.642,265.3022,77.50869,265.735Z" style="fill:#263238"/><path d="M77.18249,262.2354c.0969-.6067.1948-1.2126.3047-1.817.11381-.6251.2687-1.2519.3337-1.8836.0103-.0997.1709-.0702.1549.0314-.0953.6071-.106,1.2342-.1543,1.8474-.0486.6158-.1076,1.23-.1694,1.8446-.1148,1.144-.311,2.298-.5376,3.4281a4.05623,4.05623,0,0,0,1.6701-.6929,3.20682,3.20682,0,0,0,.894-1.7475c.1788-.6942.3291-1.397.51841-2.0884a13.60544,13.60544,0,0,0,.53149-2.3246c.0091-.1002.1673-.0702.1549.0312a24.86013,24.86013,0,0,1-.9241,4.8938,2.672,2.672,0,0,1-.9136,1.6185,5.22446,5.22446,0,0,1-2.0336.6021c-.0792.0427-.2009.0129-.1947-.0964A36.45088,36.45088,0,0,1,77.18249,262.2354Z" style="fill:#263238"/><path d="M47.7554,282.5221c-.2598-2.6705-.695-5.32-.9861-7.9869a49.54525,49.54525,0,0,1,.9671-15.9888c.0215-.0985-.1329-.1363-.1517-.0378a59.24831,59.24831,0,0,0-1.4274,14.0366c.2305,4.7063,1.0647,9.3498,1.1404,14.0701.0764,4.7798-.2992,9.5565-.6057,14.3229q-.4626,7.1931-.9253,14.3863c-1.2396,19.2749-2.3828,38.5561-3.5563,57.835-.3275,5.3811-.6319,10.7635-.9432,16.1456-.3167,5.4763-.699,10.9561-.9025,16.4378-.0175.4739.6877.4386.7264-.0179.8198-9.6705,1.2941-19.3818,1.9112-29.0673.6108-9.5885,1.1723-19.1804,1.7578-28.7704q.87825-14.3841,1.7306-28.7698.4272-7.19145.8318-14.384c.2752-4.7758.6281-9.5552.6994-14.3396A70.51216,70.51216,0,0,0,47.7554,282.5221Z" style="fill:#263238"/><path d="M60.6172,258.2141a.07924.07924,0,0,0-.1431-.0152,6.26917,6.26917,0,0,0-.3435,1.9586,13.82981,13.82981,0,0,1-.4962,2.1101,8.41387,8.41387,0,0,1-2.1802,3.6667c-2.2875,2.1402-5.3479,2.9308-8.3009,3.6541-.1095.0268-.0696.1764.0294.1835a13.2776,13.2776,0,0,0,5.1451-.805,10.78077,10.78077,0,0,0,3.9751-2.2246,7.42339,7.42339,0,0,0,2.1454-3.8859,13.25383,13.25383,0,0,0,.2455-2.3517c.014-.3792.0176-.7586.0163-1.1379A2.91976,2.91976,0,0,0,60.6172,258.2141Z" style="fill:#263238"/><path d="M76.465,200.8945c3.73549,4.6229,22.92659,19.7322,39.72439,17.6466,6.9487-.8628,11.1565-16.9841,12.0797-22.9128,1.6445-10.5614,4.0236-32.7835,0-31.8271-5.0198,1.1932-17.1349,35.8205-20.7077,36.1587-5.7338.5429-15.2673-3.5967-27.3288-5.3028C74.02479,193.7789,73.58759,197.3337,76.465,200.8945Z" style="fill:#ad6359"/><path d="M76.55509,202.6229c4.61191,5.9987,19.298,15.367,19.298,15.367l1.6856-4.4423,5.5802-14.6843s-13.1604-3.2824-21.7671-4.5763a18.75168,18.75168,0,0,0-3.0665-.2469C72.8433,194.0801,72.5787,197.4632,76.55509,202.6229Z" style="fill:#ffc727"/><path d="M76.55509,202.6229c4.61191,5.9987,19.298,15.367,19.298,15.367l1.6856-4.4423c-5.6153-5.7638-14.2733-14.4908-19.2534-19.5075C72.8433,194.0801,72.5787,197.4632,76.55509,202.6229Z" style="fill:#263238"/><path d="M93.14129,215.2567c.9102-2.6917,5.0334-13.5804,6.082-15.8765.07271-.1593.1901-.1542.1356.0207a156.67385,156.67385,0,0,1-6.111,15.8855C93.22219,215.3514,93.11819,215.3252,93.14129,215.2567Z" style="fill:#263238"/><path d="M140.32159,165.5434c.962,2.5734-2.6214,2.234-2.6214,2.234s5.0404,1.7317,5.0063,4.7684c-.041,2.9267-4.3554,2.3641-4.665,2.3279.2658.0941,4.8558,1.8062,4.5071,4.8543-.365,3.1673-4.5992,1.859-4.8724,1.7733.2231.1675,3.1367,2.432,2.3452,4.6875-1.3621,3.8749-8.9711-1.7103-12.2342-1.0685l.4819,5.2979c-.0129.1742-.0254.3562-.0467.5231l-2.6965.3705a34.97931,34.97931,0,0,0-2.7666-4.7483c-1.2458-1.9334-2.38529-3.8023-2.5049-5.2374a3.012,3.012,0,0,1,1.7949-3.1133s-2.55329-1.4038-2.3544-3.812c.1054-1.2361,2.1763-2.1672,2.1763-2.1672a3.59447,3.59447,0,0,1-1.687-3.3408c.2422-1.7016,2.2819-2.3708,2.2819-2.3708s-1.3792-2.0513-.5667-3.709C123.53019,159.4654,138.25709,160.0347,140.32159,165.5434Z" style="fill:#ad6359"/><path d="M127.561,185.8192l.70809,4.599c-.0129.1742-.0254.3562-.0467.5231-.7012,5.9072-7.1601,9.9532-7.8991,5.7502-.5668-3.1967,3.4832-6.9371,2.4282-10.1275l.0078-.0005Z" style="fill:#ad6359"/><path d="M122.77239,166.3664a.03868.03868,0,0,1-.0119-.0764,25.56281,25.56281,0,0,1,15.1352,1.4851c.1499.068.1045.3411-.075.2977A52.35361,52.35361,0,0,0,122.77239,166.3664Z" style="fill:#263238"/><path d="M121.79909,172.201c-.0573.0028-.0624-.0926-.0019-.1044a23.94484,23.94484,0,0,1,16.41,2.6462c.1711.1034.221.3674.0151.2636C134.755,173.2552,126.55769,171.9776,121.79909,172.201Z" style="fill:#263238"/><path d="M137.95169,181.8312c-4.89269-2.7026-10.1594-3.5651-15.6964-3.6732-.072-.0014-.0625-.1032-.002-.1185,2.7229-.6851,6.2451-.2483,8.9568.3235a14.73644,14.73644,0,0,1,6.8361,3.2972C138.12389,181.7275,138.05619,181.889,137.95169,181.8312Z" style="fill:#263238"/><path d="M128.25569,187.7061c-.1756-.9251-.3015-1.8014-.4663-2.7281-.0158-.0892-.1528-.0602-.1529.0246-.0013,1.3162.15351,2.6017.1916,3.9214a11.84469,11.84469,0,0,1-.5464,3.9889,9.23048,9.23048,0,0,1-1.6912,3.0801,4.86985,4.86985,0,0,1-3.14949,2.013,1.9782,1.9782,0,0,1-1.99921-2.2843,7.99781,7.99781,0,0,1,1.3599-3.3589,12.67112,12.67112,0,0,0,1.4227-3.5609,4.98015,4.98015,0,0,0-.6551-3.241c-.3466-.6923-.7074-1.3775-1.0644-2.0644a8.10628,8.10628,0,0,1-.81289-1.7917,3.093,3.093,0,0,1,1.49129-3.4475.07781.07781,0,1,0-.0637-.1413,4.272,4.272,0,0,0-2.2068,2.3518,4.09894,4.09894,0,0,0,.5906,3.3722q.5478,1.038,1.1012,2.073a4.32746,4.32746,0,0,1,.7261,2.3307,11.88,11.88,0,0,1-1.7778,4.4118,6.06011,6.06011,0,0,0-.9735,3.6961,2.78387,2.78387,0,0,0,1.9493,2.4094c2.605.7012,4.9309-2.1478,5.9187-4.1961a10.42946,10.42946,0,0,0,1.03361-4.516A12.59228,12.59228,0,0,0,128.25569,187.7061Z" style="fill:#263238"/><path d="M132.19579,185.9695a7.03049,7.03049,0,0,0-1.7765-.805,8.38021,8.38021,0,0,0-1.9249-.3923,4.81031,4.81031,0,0,0-1.8132.1493,3.28751,3.28751,0,0,0-1.4214.908.07876.07876,0,0,0,.0791.1288,12.71068,12.71068,0,0,1,1.5597-.3176,8.36716,8.36716,0,0,1,3.45141.0638c.60189.1133,1.18749.3171,1.79479.3948A.07068.07068,0,0,0,132.19579,185.9695Z" style="fill:#263238"/><path d="M121.925,178.0101c-.08541-.0619-.17651-.1153-.26061-.1789a4.21392,4.21392,0,0,1-.4875-.4334c-.1576-.164-.31589-.3274-.4613-.5025-.075-.0904-.158-.1759-.24-.2602-.0412-.0423-.0877-.0804-.1254-.126a1.64322,1.64322,0,0,1-.1169-.1802c-.0532-.0854-.1891-.0013-.1329.0822a1.72326,1.72326,0,0,1,.117.1799c.0288.0571.0455.1201.0701.1791a2.92194,2.92194,0,0,0,.1606.3422,3.0889,3.0889,0,0,0,.4511.627,1.82582,1.82582,0,0,0,.5865.4145,1.12856,1.12856,0,0,0,.3346.1007.54608.54608,0,0,0,.30871-.0207.0471.0471,0,0,0,.01529-.0645A.96421.96421,0,0,0,121.925,178.0101Z" style="fill:#263238"/><path d="M92.04679,258.8365c-.9096.8048-13.1527,1.113-25.642,1.1032-4.7364-.0036-9.5181-.0578-13.7214-.1513-7.672-.1616-11.8614-.3583-12.0973-.7157-.6411-.9724,9.3551-34.7164,15.8329-47.1201,4.1179-7.8805,7.3042-11.877,9.9039-14.1304,1.573-1.3593,2.1285-2.128,3.345-2.6994.649-.2993,1.2634-.5527,1.8477-.8397,2.9614-1.4329,11.1564-.0496,12.43859.623,1.4536.7542,5.4445,8.4288,6.2525,14.6594C91.01519,215.7881,92.83889,258.1292,92.04679,258.8365Z" style="fill:#ffc727"/><path d="M41.45,254.67H92.24c-.01-1.32-.03-2.9-.07-4.67H42.73Z" style="opacity:0.1"/><path d="M66.3702,203.9273c-.8915,8.8436,10.61939,37.6184,17.08089,42.6886,9.6092,7.5404,30.6301,12.7029,36.8046,14.0255,2.6906.5764,6.9252-22.1823,4.0597-22.8491-6.27339-1.4597-26.1216-4.1455-27.8933-5.4493-1.7718-1.3038-13.0097-15.2627-18.1425-23.4087C71.3934,198.0053,66.821,199.4542,66.3702,203.9273Z" style="fill:#ad6359"/><path d="M135.85229,259.9682c1.5902-2.2404-1.9604-2.8318-1.9604-2.8318s5.31611-.3804,6.0623-3.3241c.7114-2.8392-3.6029-3.4026-3.9114-3.4471.2811-.0227,5.1568-.4997,5.6019-3.5351.46-3.155-3.9682-2.977-4.2542-2.9643.2586-.1047,3.6557-1.5456,3.46951-3.9287-.32211-4.0947-10.08761-.7643-13.07671-2.2219v-5.4483a29.69879,29.69879,0,0,1-3.6322,3.3953c-1.7002,1.5489-3.1602,2.546-3.64409,3.9024a3.0118,3.0118,0,0,0,.936,3.4695s-2.82811.7016-3.25381,3.0803c-.2153,1.2217,1.5473,2.6531,1.5473,2.6531a3.59437,3.59437,0,0,0-2.4878,2.796c-.2025,1.7068,1.5971,2.877,1.5971,2.877s-1.8594,1.6286-1.4995,3.4394C118.06349,261.5339,132.44329,264.7627,135.85229,259.9682Z" style="fill:#ad6359"/><path d="M119.10189,254.6694a.03872.03872,0,0,0-.031.0709,25.56311,25.56311,0,0,0,15.0094,2.4485c.1624-.0273.1885-.303.0039-.3071A52.3481,52.3481,0,0,1,119.10189,254.6694Z" style="fill:#263238"/><path d="M119.65839,248.7805c-.0547-.0174-.084.0734-.0285.1004a23.94516,23.94516,0,0,0,16.5395,1.6534c.1919-.0561.3078-.2985.0822-.2509C132.451,251.0862,124.20039,250.2175,119.65839,248.7805Z" style="fill:#263238"/><path d="M137.74139,243.6177c-5.42239,1.3565-10.7341.8387-16.11339-.4777-.07-.0171-.08691.0837-.03241.114,2.456,1.3609,5.9723,1.8426,8.74,1.9857a14.73408,14.73408,0,0,0,7.4532-1.4325C137.88119,243.7621,137.85719,243.5886,137.74139,243.6177Z" style="fill:#263238"/><path d="M74.99949,203.9646c-7.74519-9.4632-11.69219-5.474-9.51739,5.2372a173.85759,173.85759,0,0,0,6.4277,21.812l17.16349-9.8613S79.95609,210.0206,74.99949,203.9646Z" style="fill:#ffc727"/><path d="M77.57319,206.7955c1.0377,1.2342,2.1075,2.4408,3.174,3.65-.29319-.6291-.554-1.2666-.7923-1.9204a.02459.02459,0,0,1,.0457-.0181c.2335.4978.4881.9861.7136,1.4875q.16245.36135.331.7202c.0243.0514.0489.1027.0733.1541.8303.9434,1.657,1.8896,2.4602,2.8558.9584,1.1532,1.8875,2.3292,2.8206,3.5028.9642,1.2126,1.8985,2.6481,2.9089,3.8215.08781.1019-1.518.8858-1.6663.9826-.1517.0993-.27-.0465-.1054-.1095.15151-.0581,1.4038-.9549,1.419-.9721-.933-1.1837-1.9968-2.2639-2.9678-3.4173-.9662-1.1479-1.9358-2.2923-2.8771-3.4611-1.9112-2.3734-3.6881-4.8541-5.5868-7.2393C77.499,206.801,77.54789,206.7656,77.57319,206.7955Z" style="fill:#263238"/><path d="M66.4237,216.323c.3074.5068.6347,1.0066.912,1.5308.1146.2166.2278.4339.3424.6504q-.81135-2.8449-1.6044-5.6952c-.0062-.0224.0267-.0365.0344-.0136,1.0345,3.064,2.0773,6.1241,3.055,9.2066a91.65952,91.65952,0,0,1,2.6444,8.925,10.7184,10.7184,0,0,1,1.629-.6815,7.93452,7.93452,0,0,1-1.77019,1.0168,94.84986,94.84986,0,0,1-2.9792-9.2717c-.2537-.8502-.4943-1.704-.7398-2.5564-.237-.5071-.5157-.9926-.7885-1.482-.2888-.5184-.5304-1.0651-.7884-1.5995C66.3554,216.3215,66.4056,216.293,66.4237,216.323Z" style="fill:#263238"/><path d="M71.9813,228.0212c2.37059-1.5666,12.30829-7.6335,14.54539-8.8028.1551-.0812.2447-.0051.09431.0996a156.68248,156.68248,0,0,1-14.5737,8.7922C71.9872,228.1457,71.9211,228.0611,71.9813,228.0212Z" style="fill:#263238"/><path d="M82.18289,202.6405c-2.9273.4327-7.47689-4.3736-9.1178-8.0934-.111-.2556.4823-2.7914,1.0574-5.9068.3416-1.8919.6774-4.0066.8446-5.9583.0322-.4008,1.3335.452,1.3335.452l2.4733.8265,8.1798,2.7434a31.23065,31.23065,0,0,0-1.8241,7.3928,4.39417,4.39417,0,0,0,.0156.8082c.0009.0371.0079.0826.0064.1341C85.26929,196.5817,85.012,202.2203,82.18289,202.6405Z" style="fill:#ad6359"/><path d="M85.14519,194.9049c.0009.0371.0079.0826.0064.1341a7.74514,7.74514,0,0,1-1.264-.041c-8.2267-.8892-8.3593-11.4578-8.3593-11.4578l3.2456.4203,8.1798,2.7434a31.23065,31.23065,0,0,0-1.8241,7.3928A4.39417,4.39417,0,0,0,85.14519,194.9049Z" style="fill:#263238"/><path d="M72.4046,170.5211c-1.0279,4.4372,2.129,16.8348,5.4124,19.4219,4.75989,3.7507,12.12339,3.6351,15.20159-1.9885,2.9839-5.451-1.4162-21.5351-5.0438-23.842C82.632,160.7147,73.923,163.9667,72.4046,170.5211Z" style="fill:#ad6359"/><path d="M77.49759,189.8423l-.0007-.0046" style="fill:none;stroke:#ff98b9;stroke-linecap:round;stroke-linejoin:round;stroke-width:0px"/><path d="M85.28249,177.8592c-.0144-.0301-.0556.056-.0458.09.235.8294.3645,1.819-.32269,2.2852-.02121.0143-.00841.0558.01869.0449C85.82329,179.9193,85.63809,178.6073,85.28249,177.8592Z" style="fill:#263238"/><path d="M84.318,177.1724c-1.37011.2333-.80271,2.9566.46669,2.7404C86.03409,179.6999,85.46659,176.9767,84.318,177.1724Z" style="fill:#263238"/><path d="M90.07979,176.6678c-.0004-.0335.07421.0262.0804.061.1491.849.4626,1.7964,1.284,1.9175.0256.0039.032.0467.0029.0486C90.48859,178.7579,90.08479,177.496,90.07979,176.6678Z" style="fill:#263238"/><path d="M90.64949,175.6299c1.3353-.3857,2.0084,2.3133.7714,2.6705C90.20339,178.6522,89.53009,175.9531,90.64949,175.6299Z" style="fill:#263238"/><path d="M82.98389,176.1511a10.834,10.834,0,0,0,.9773-.5912c.3725-.2311.693-.3766.88181-.7931a.58852.58852,0,0,0-.238-.6777,1.4585,1.4585,0,0,0-1.47.1527,2.14238,2.14238,0,0,0-1.01961,1.1592A.62746.62746,0,0,0,82.98389,176.1511Z" style="fill:#263238"/><path d="M91.41679,174.0392a10.804,10.804,0,0,1-1.14079-.0553,1.84412,1.84412,0,0,1-1.15261-.2783.588.588,0,0,1-.1132-.7093,1.45845,1.45845,0,0,1,1.3657-.5647,2.14224,2.14224,0,0,1,1.4484.5348A.62749.62749,0,0,1,91.41679,174.0392Z" style="fill:#263238"/><path d="M85.78629,185.562c.2432.1554.5015.3854.8129.3473a2.27512,2.27512,0,0,0,.8626-.4011.03021.03021,0,0,1,.0456.0357,1.16023,1.16023,0,0,1-.9755.681.91741.91741,0,0,1-.8188-.6078C85.69,185.5708,85.75079,185.5394,85.78629,185.562Z" style="fill:#263238"/><path d="M86.14669,182.8516a2.93378,2.93378,0,0,0,2.1835.8785,3.68723,3.68723,0,0,0,1.0431-.168,1.051,1.051,0,0,0,.1926-.0638c.06-.0203.11411-.039.179-.0669a.21435.21435,0,0,0,.1298-.2241l-.0014-.0061a.41186.41186,0,0,0-.0259-.0847l-.0013-.0063-.017-.0737c-.1176-.6531-.3864-1.6277-.3864-1.6277.2621.0694,1.5855.3616,1.4955.0261a44.151,44.151,0,0,0-2.9255-8.4606.07994.07994,0,0,0-.14969.0537c.61829,2.6948,1.70619,5.2626,2.37029,7.9597a5.138,5.138,0,0,0-1.4414-.1291c-.0868.0458.5532,1.8744.5826,2.1721a.11377.11377,0,0,1,.0008.0321,4.06714,4.06714,0,0,1-3.1654-.3035C86.137,182.7243,86.08209,182.7951,86.14669,182.8516Z" style="fill:#263238"/><path d="M88.92159,183.3127a3.48181,3.48181,0,0,1-1.1441,1.3417,1.566,1.566,0,0,1-.9192.2521c-.7105-.0367-.8562-.6513-.8427-1.206a3.74222,3.74222,0,0,1,.1332-.8727A4.50754,4.50754,0,0,0,88.92159,183.3127Z" style="fill:#263238"/><path d="M87.77749,184.6544a1.566,1.566,0,0,1-.9192.2521c-.7105-.0367-.8562-.6513-.8427-1.206A1.61754,1.61754,0,0,1,87.77749,184.6544Z" style="fill:#ff98b9"/><path d="M90.77659,167.9836c-3.732,3.9413-10.696.6893-10.696.6893a4.86765,4.86765,0,0,1-4.182,4.0504s.7309,7.5948-1.2235,7.9999c-2.981.6208-6.07129-9.2852-5.55979-11.4723a5.42939,5.42939,0,0,1,2.9276-3.2379,4.97456,4.97456,0,0,1,1.39159-3.3809c1.698-1.9927,9.1631-1.4047,9.1631-1.4047a6.6729,6.6729,0,0,1,1.2752-2.811,1.8807,1.8807,0,0,1,2.70121-.3261,4.501,4.501,0,0,0-.32141,1.9807c.115,2.2444,1.8868,1.8614,1.448-.1026a3.13408,3.13408,0,0,0-1.12659-1.8781c.59809-1.4735,1.93589-2.1989,2.95109-1.6965C91.36649,157.3061,93.88119,164.7084,90.77659,167.9836Z" style="fill:#263238"/><path d="M75.79049,180.5691s-3.19459-3.8018-4.94419-2.6276c-1.7496,1.1743.904,6.8609,3.13479,7.4729a2.20464,2.20464,0,0,0,2.8377-1.442Z" style="fill:#ad6359"/><path d="M71.6474,179.5527a.03.03,0,0,0-.0062.0588,5.573,5.573,0,0,1,3.17809,3.2181,1.21728,1.21728,0,0,0-1.8436-.1702c-.0368.0317.0064.0901.04831.0773a1.356,1.356,0,0,1,1.52859.3393,6.54635,6.54635,0,0,1,.8188,1.1393c.0829.129.3209.0349.2555-.1164l-.0155-.034C75.47809,182.1311,73.73739,179.5627,71.6474,179.5527Z" style="fill:#263238"/></g><g id="Speech_Bubble" data-name="Speech Bubble"><path d="M420.74871,166.40437a12.141,12.141,0,0,1-2.0764-6.7069c0-8.4966,9.33058-15.3859,20.8331-15.3859,11.5026,0,20.82448,6.8893,20.82448,15.3859s-9.32188,15.3859-20.82448,15.3859a25.01508,25.01508,0,0,1-14.3694-4.257l-7.17612,1.8245Z" style="fill:#fff"/><path d="M418.07011,172.7l-.1398-.166,7.149-1.9301.0988-.0267.0906.0617A24.44272,24.44272,0,0,0,437.824,174.67a27.74012,27.74012,0,0,0,6.6301-.4694,23.87183,23.87183,0,0,0,6.2939-2.0485,19.28532,19.28532,0,0,0,5.3388-3.8223,13.42155,13.42155,0,0,0,3.31508-5.5436,10.98161,10.98161,0,0,0-.08828-6.3787,13.51356,13.51356,0,0,0-3.3962-5.4859,21.75454,21.75454,0,0,0-11.68652-5.7508,27.77609,27.77609,0,0,0-13.15818.8381,18.85316,18.85316,0,0,0-10.5102,7.7107,11.90376,11.90376,0,0,0-1.7644,6.3381,12.34888,12.34888,0,0,0,1.9506,6.3467Zm.4906-12.6348a12.24253,12.24253,0,0,1,1.626-6.5651,16.40432,16.40432,0,0,1,4.59218-5.0339,21.94982,21.94982,0,0,1,6.07182-3.1233,28.23952,28.23952,0,0,1,6.6966-1.3698,28.70716,28.70716,0,0,1,6.8345.3339,22.65934,22.65934,0,0,1,12.2132,5.9392,14.48658,14.48658,0,0,1,3.671,5.8673,11.88071,11.88071,0,0,1,.0613,6.9395,14.36071,14.36071,0,0,1-3.5781,5.9195,20.18584,20.18584,0,0,1-5.6147,3.9732,26.80006,26.80006,0,0,1-13.3534,2.4413,24.7922,24.7922,0,0,1-12.7776-4.373l.189.035-7.2028,1.7188-.245.0584.1051-.2246,2.8989-6.1972A12.14961,12.14961,0,0,1,418.56071,160.06517Z" style="fill:#263238"/><path d="M446.99611,159.69667a2.16,2.16,0,1,0,2.1599-2.16A2.15987,2.15987,0,0,0,446.99611,159.69667Z" style="fill:#263238"/><path d="M437.343,159.69667a2.16,2.16,0,1,0,2.16-2.16A2.16,2.16,0,0,0,437.343,159.69667Z" style="fill:#263238"/><path d="M427.69,159.69667a2.16,2.16,0,1,0,2.16-2.16A2.1599,2.1599,0,0,0,427.69,159.69667Z" style="fill:#263238"/></g></svg>